<?xml version="1.0" standalone="no"?>
<!DOCTYPE svg PUBLIC "-//W3C//DTD SVG 20010904//EN"
 "http://www.w3.org/TR/2001/REC-SVG-20010904/DTD/svg10.dtd">
<svg version="1.0" xmlns="http://www.w3.org/2000/svg"
 width="1284.000000pt" height="1284.000000pt" viewBox="0 0 1284.000000 1284.000000"
 preserveAspectRatio="xMidYMid meet">
<metadata>
Created by potrace 1.14, written by Peter Selinger 2001-2017
</metadata>
<g transform="translate(0.000000,1284.000000) scale(0.100000,-0.100000)"
fill="#000000" stroke="none">
<path d="M6440 11612 c0 -7 -4 -10 -10 -7 -5 3 -10 -1 -10 -9 0 -9 -5 -16 -11
-16 -5 0 -7 6 -3 13 6 9 5 9 -8 0 -8 -7 -19 -9 -23 -5 -5 4 -5 -1 -2 -11 6
-15 4 -16 -14 -6 -11 6 -27 8 -35 5 -8 -3 -14 -2 -14 3 0 4 -6 8 -12 8 -7 0
-26 4 -42 8 -17 5 -27 4 -23 -1 3 -6 -12 -9 -35 -8 -22 1 -44 7 -48 14 -6 10
-9 9 -13 -1 -4 -10 -6 -10 -6 -1 -1 6 -6 12 -12 12 -5 0 -8 -4 -5 -9 5 -8 -22
-8 -31 -1 -9 8 -49 4 -55 -5 -5 -7 -8 -6 -8 1 0 10 -32 12 -65 4 -5 -1 -12 -1
-15 0 -21 8 -38 6 -34 -3 2 -7 -6 -13 -21 -13 -14 -1 -23 1 -21 5 3 4 -6 7
-19 7 -13 0 -21 -4 -19 -8 6 -10 -4 -9 -31 1 -12 5 -33 2 -53 -6 -18 -7 -37
-11 -42 -8 -6 3 -7 -1 -4 -10 5 -11 2 -14 -10 -9 -11 4 -23 -1 -32 -12 -9 -11
-13 -13 -9 -6 3 6 1 12 -4 12 -6 0 -11 -4 -11 -10 0 -5 -18 -18 -40 -29 -22
-10 -40 -15 -40 -9 0 6 -9 0 -20 -13 -10 -13 -19 -18 -20 -11 0 6 5 12 10 12
6 0 10 5 10 12 0 6 -8 3 -20 -7 -11 -10 -17 -22 -14 -26 3 -5 0 -9 -6 -9 -6 0
-8 -5 -4 -12 6 -9 3 -9 -9 0 -14 12 -16 11 -12 -8 4 -19 2 -20 -12 -8 -11 8
-14 9 -10 1 5 -7 -1 -17 -13 -23 -13 -7 -19 -18 -16 -26 5 -12 2 -12 -17 -3
-20 11 -21 11 -8 -4 12 -16 9 -21 -11 -18 -5 0 -8 -5 -8 -13 0 -8 -5 -18 -12
-22 -6 -4 -8 -3 -4 4 3 6 1 14 -5 18 -7 4 -9 3 -5 -4 3 -6 2 -13 -4 -17 -6 -4
-8 -11 -4 -16 7 -12 -18 -7 -27 4 -3 5 -9 1 -12 -8 -4 -9 -3 -13 3 -10 25 15
7 -12 -19 -30 -16 -10 -27 -23 -25 -27 5 -7 -10 -12 -28 -9 -4 0 -5 -6 -1 -15
4 -10 -2 -17 -16 -21 -11 -3 -18 -10 -14 -16 4 -6 0 -8 -10 -4 -12 4 -14 2
-10 -10 5 -12 3 -14 -7 -8 -10 6 -12 4 -7 -8 3 -9 3 -16 -1 -16 -19 3 -33 -2
-28 -9 3 -5 -6 -15 -20 -22 -14 -8 -22 -20 -19 -27 3 -8 0 -11 -6 -8 -6 4 -13
-3 -16 -15 -3 -13 -11 -19 -20 -16 -10 4 -11 1 -3 -14 11 -20 -2 -36 -19 -25
-6 3 -8 -4 -6 -16 2 -12 1 -19 -2 -15 -10 9 -52 -34 -47 -48 3 -7 -3 -19 -13
-27 -17 -13 -17 -13 -3 6 14 19 14 19 -3 6 -10 -8 -16 -20 -13 -28 3 -7 0 -13
-7 -13 -8 0 -6 -4 3 -10 14 -9 7 -15 -14 -11 -5 1 -3 -5 4 -14 11 -14 11 -16
-1 -13 -8 2 -13 -4 -13 -14 1 -10 -3 -16 -8 -15 -6 1 -12 -7 -14 -17 -1 -10
-9 -23 -16 -27 -10 -7 -10 -9 0 -9 6 0 12 -5 12 -11 0 -5 -4 -7 -10 -4 -6 4
-10 -5 -10 -20 0 -15 -4 -24 -10 -20 -6 4 -10 3 -9 -2 3 -19 -2 -34 -9 -29 -5
3 -9 -1 -9 -9 0 -8 5 -11 11 -8 5 4 0 -8 -13 -25 -12 -18 -19 -36 -16 -42 3
-5 1 -10 -4 -10 -6 0 -11 -5 -11 -11 0 -5 6 -7 13 -4 6 4 1 -3 -13 -15 -14
-12 -19 -19 -12 -15 6 3 12 2 12 -3 0 -6 -8 -13 -17 -16 -15 -6 -15 -8 -3 -16
12 -8 12 -10 -3 -16 -13 -4 -15 -10 -7 -19 7 -9 3 -20 -15 -39 -13 -14 -26
-30 -27 -34 -2 -4 -6 -6 -10 -4 -7 2 -12 -13 -10 -29 1 -4 -8 -5 -18 -2 -12 3
-20 0 -20 -6 0 -7 5 -9 13 -5 8 5 7 2 -2 -10 -8 -9 -21 -14 -29 -11 -13 5 -13
3 -1 -11 13 -16 12 -16 -11 -4 -23 12 -24 12 -11 -3 13 -17 7 -22 -21 -18 -4
0 -5 -5 -2 -13 3 -7 -3 -19 -13 -27 -17 -13 -17 -13 -4 6 8 11 1 7 -15 -10
-17 -16 -29 -33 -27 -37 2 -4 -6 -5 -17 -3 -11 2 -18 1 -16 -4 7 -10 -11 -36
-26 -36 -7 0 -22 -15 -34 -33 -14 -20 -24 -28 -27 -20 -5 12 -11 -15 -8 -34 0
-4 -7 -4 -17 -1 -9 3 -14 3 -10 -1 3 -4 -2 -16 -13 -27 -11 -11 -17 -24 -14
-29 5 -9 -15 -15 -37 -11 -4 0 -5 -6 -2 -14 4 -8 1 -15 -5 -15 -6 0 -11 -7
-11 -15 0 -18 -16 -20 -24 -2 -3 6 -3 1 0 -12 4 -14 2 -21 -4 -17 -9 6 -27
-21 -24 -36 1 -4 -6 -4 -15 -1 -12 5 -15 2 -10 -10 4 -10 -5 -26 -28 -45 -25
-23 -30 -33 -22 -41 9 -9 8 -11 -4 -6 -9 3 -22 -2 -30 -12 -13 -16 -12 -17 4
-4 15 12 17 12 11 -3 -6 -15 -17 -20 -36 -17 -4 0 -5 -6 -2 -13 3 -8 -3 -19
-15 -26 -12 -6 -21 -17 -21 -25 0 -7 -5 -17 -12 -21 -7 -5 -8 -3 -3 6 6 9 4
11 -4 6 -7 -5 -10 -14 -7 -22 3 -8 -1 -17 -9 -20 -8 -4 -15 -12 -15 -20 0 -8
-7 -14 -16 -14 -11 0 -14 -8 -12 -24 2 -18 -7 -33 -31 -55 -19 -17 -31 -31
-27 -31 4 0 1 -6 -6 -14 -7 -8 -17 -11 -23 -8 -5 3 -7 2 -3 -3 4 -4 3 -14 -3
-21 -7 -8 -7 -14 1 -19 8 -5 6 -14 -7 -28 -12 -14 -13 -18 -3 -12 12 7 13 6 3
-7 -7 -8 -10 -18 -6 -22 4 -4 -1 -4 -10 0 -10 3 -17 3 -16 -2 4 -21 -2 -28
-11 -14 -8 13 -10 12 -11 -5 -1 -11 -1 -23 -1 -26 1 -4 -6 -6 -16 -5 -16 1
-18 -3 -21 -41 -1 -16 -3 -16 -11 -3 -8 13 -11 12 -16 -6 -4 -16 -11 -20 -27
-16 -16 4 -19 2 -14 -11 4 -11 2 -14 -9 -10 -7 3 -14 1 -14 -4 0 -5 -11 -9
-24 -9 -14 0 -22 4 -20 8 10 15 -9 8 -23 -9 -14 -17 -14 -17 -9 0 5 15 3 16
-17 5 -12 -7 -26 -11 -31 -10 -5 2 -4 -3 2 -10 8 -11 6 -17 -9 -26 -12 -8 -19
-8 -19 -2 0 7 -6 7 -20 0 -11 -6 -20 -7 -20 -2 0 5 -7 9 -15 9 -8 0 -11 -5 -8
-10 3 -6 -7 -8 -26 -5 -23 3 -31 1 -32 -11 0 -12 -2 -12 -8 3 -7 17 -8 17 -23
2 -12 -11 -18 -12 -20 -4 -3 8 -11 5 -23 -10 -14 -16 -21 -18 -27 -9 -5 8 -8
7 -8 -5 0 -9 -5 -20 -12 -24 -7 -4 -8 -3 -4 4 5 8 2 10 -8 6 -9 -3 -16 -13
-16 -22 0 -13 -2 -13 -13 3 -11 14 -16 15 -22 5 -6 -9 -4 -11 5 -5 9 5 11 4 6
-4 -6 -9 -11 -9 -21 -1 -7 6 -21 7 -30 3 -13 -4 -16 -3 -11 5 10 17 0 15 -18
-4 -9 -8 -16 -11 -16 -4 0 7 -5 6 -14 -2 -8 -7 -12 -16 -10 -19 2 -3 -3 -6
-11 -6 -8 0 -12 4 -9 8 2 4 0 10 -6 14 -5 3 -10 0 -11 -7 0 -7 -4 -4 -9 7 -6
13 -9 15 -9 5 -1 -11 -12 -15 -43 -13 -24 1 -51 4 -60 8 -11 4 -18 3 -18 -5 0
-6 4 -9 9 -5 5 3 12 1 15 -4 5 -8 -15 -8 -34 -1 -3 1 -9 1 -15 0 -42 -9 -59
-10 -47 -2 11 7 9 10 -7 15 -12 3 -21 0 -21 -6 0 -8 -4 -7 -12 1 -9 9 -16 8
-32 -6 -11 -10 -16 -11 -11 -3 6 10 4 12 -4 7 -7 -5 -10 -15 -7 -25 6 -14 5
-15 -6 0 -7 9 -19 14 -27 11 -8 -2 -11 0 -8 5 3 5 0 10 -8 10 -8 0 -12 -3 -10
-7 2 -4 -2 -7 -10 -7 -8 0 -12 4 -9 9 3 4 2 8 -3 9 -4 0 -16 2 -25 4 -11 2
-15 -2 -11 -11 4 -11 -1 -14 -20 -10 -21 4 -25 1 -20 -12 6 -15 5 -15 -10 -3
-10 8 -20 11 -24 8 -3 -4 -12 -2 -20 5 -11 9 -12 7 -7 -8 5 -18 5 -18 -10 0
-11 14 -16 15 -16 6 0 -9 -5 -8 -16 6 -12 15 -14 15 -11 2 4 -11 1 -15 -11
-13 -9 2 -18 4 -19 5 -7 6 -30 6 -43 -1 -8 -3 -36 -1 -62 6 -34 8 -48 9 -48 1
0 -6 -5 -4 -10 4 -5 8 -10 10 -10 4 0 -12 -28 -12 -47 -1 -6 4 -15 2 -18 -3
-5 -7 -12 -5 -21 7 -12 17 -13 17 -9 -4 3 -16 0 -20 -11 -16 -7 3 -11 10 -8
15 4 6 -5 2 -20 -7 -20 -14 -26 -14 -26 -4 0 11 -2 11 -10 -1 -9 -13 -10 -13
-11 0 0 10 -3 8 -9 -5 -8 -18 -9 -18 -10 5 -1 14 -4 18 -6 10 -6 -20 -132 -19
-145 1 -8 13 -13 5 -10 -15 1 -5 -5 -4 -13 3 -8 7 -21 9 -27 5 -7 -4 -9 -3 -6
3 4 6 0 14 -9 17 -8 3 -12 2 -9 -4 3 -6 1 -10 -4 -10 -6 0 -11 8 -11 18 0 14
-2 15 -10 2 -8 -12 -10 -12 -11 5 0 11 -3 14 -6 8 -3 -10 -8 -9 -20 2 -12 13
-18 13 -31 3 -13 -11 -14 -11 -7 1 6 11 4 13 -8 8 -10 -4 -20 0 -25 10 -6 11
-11 12 -16 4 -11 -17 -26 -13 -26 7 0 14 -2 15 -10 2 -6 -9 -10 -10 -10 -3 0
8 -9 9 -30 3 -23 -7 -32 -5 -40 8 -9 16 -9 16 -10 0 0 -20 -11 -23 -27 -7 -8
8 -13 7 -18 -2 -5 -8 -4 -10 3 -5 7 4 12 5 12 1 0 -3 -12 -10 -26 -15 -18 -7
-24 -15 -20 -26 3 -8 2 -12 -4 -9 -6 3 -10 1 -10 -5 0 -6 -5 -8 -12 -4 -11 7
-11 5 10 -45 3 -9 1 -12 -5 -8 -8 5 -9 -1 -4 -20 5 -16 14 -27 21 -25 7 2 10
-3 7 -10 -2 -7 2 -19 9 -26 8 -7 14 -9 14 -5 0 4 10 -5 21 -22 13 -19 19 -23
15 -10 -6 19 -5 19 11 -2 10 -12 32 -23 48 -25 17 -2 43 -15 59 -30 29 -28 45
-31 58 -13 5 6 8 5 8 -4 0 -11 3 -11 15 -1 9 7 15 8 15 2 0 -5 12 -18 27 -28
26 -16 27 -16 14 0 -13 16 -12 16 12 5 15 -7 27 -19 28 -28 0 -12 3 -11 9 4
l9 20 0 -20 c1 -17 3 -17 11 -5 9 13 14 8 12 -11 -1 -4 7 -5 17 -2 12 3 28 -6
45 -24 14 -15 26 -24 26 -19 0 5 8 2 17 -5 14 -12 16 -12 9 1 -4 8 0 6 8 -4
16 -20 16 -20 17 0 0 18 1 18 9 -1 4 -12 16 -27 26 -35 17 -13 17 -12 -1 10
l-20 25 23 -19 c12 -11 22 -25 22 -31 0 -8 10 -10 26 -7 19 3 25 1 20 -7 -4
-6 -2 -11 4 -11 6 0 8 -4 5 -10 -3 -6 1 -7 9 -4 11 4 16 0 16 -10 0 -10 8 -16
21 -16 14 0 19 -5 16 -15 -4 -8 -1 -17 5 -21 7 -4 8 -3 4 4 -12 20 6 13 25 -9
10 -12 16 -26 13 -31 -4 -6 4 -4 17 3 22 11 23 11 10 -5 -8 -9 -11 -19 -7 -23
3 -3 6 -1 6 5 0 7 5 12 11 12 6 0 8 -7 5 -16 -4 -11 -2 -15 8 -11 9 4 17 -1
21 -12 3 -10 15 -23 28 -30 16 -9 17 -10 3 -6 -19 6 -19 5 -1 -15 19 -21 30
-27 20 -10 -3 6 -1 10 4 10 6 0 11 -7 11 -15 0 -9 9 -15 21 -15 17 0 19 -3 10
-14 -10 -12 -8 -13 8 -9 15 4 21 1 21 -11 0 -10 5 -14 10 -11 6 3 10 1 10 -4
0 -6 7 -11 16 -11 8 0 12 -5 9 -11 -4 -6 0 -9 11 -7 14 2 19 -3 18 -19 -1 -13
3 -20 7 -17 5 3 12 -2 16 -11 3 -10 21 -34 39 -54 19 -20 34 -40 34 -44 0 -5
4 -6 8 -3 5 3 9 -1 9 -9 0 -8 -3 -12 -7 -10 -16 10 -3 -47 15 -63 16 -14 17
-14 6 0 -8 11 -9 18 -1 23 6 4 9 3 8 -2 -1 -4 3 -18 10 -29 6 -12 8 -24 5 -28
-3 -3 -1 -6 5 -6 7 0 12 -8 12 -17 0 -15 2 -16 10 -3 8 12 10 11 10 -7 0 -13
3 -23 8 -23 4 0 16 -12 26 -27 11 -14 14 -23 8 -19 -7 4 -12 2 -12 -3 0 -6 8
-11 17 -11 9 0 13 -3 10 -7 -4 -3 1 -12 11 -20 9 -8 11 -11 4 -8 -11 6 -12 3
-3 -14 7 -11 14 -21 17 -21 3 0 2 6 -2 13 -5 8 -4 9 4 2 6 -5 12 -17 14 -25 4
-20 21 -39 30 -33 4 2 5 -3 2 -11 -4 -10 -1 -16 7 -16 7 0 10 -3 6 -6 -3 -3 1
-13 9 -22 8 -10 13 -19 12 -22 -2 -3 5 -19 16 -34 11 -18 13 -26 5 -21 -8 3
-6 0 5 -9 10 -8 15 -20 10 -27 -4 -8 -3 -10 4 -5 7 4 12 1 12 -8 0 -8 6 -19
14 -23 8 -4 16 -12 18 -18 2 -5 6 -9 9 -8 4 1 4 -7 1 -19 -4 -15 -2 -19 7 -13
10 6 11 3 1 -15 -7 -12 -8 -20 -3 -17 4 3 14 -1 20 -9 8 -8 9 -15 3 -19 -13
-8 -13 -25 1 -25 5 0 7 5 3 12 -4 7 -3 8 5 4 6 -4 9 -12 6 -17 -4 -5 1 -16 10
-25 9 -9 14 -23 11 -31 -4 -9 -2 -11 6 -7 7 5 9 2 5 -9 -4 -12 -2 -14 11 -10
15 6 15 5 3 -11 -8 -9 -10 -16 -5 -15 20 3 35 -1 30 -10 -9 -14 5 -42 18 -34
7 4 7 2 -1 -7 -9 -10 -7 -17 12 -31 14 -12 21 -26 18 -37 -2 -11 7 -29 24 -47
15 -16 21 -25 13 -20 -12 6 -13 5 -2 -6 16 -17 16 -32 0 -24 -7 4 -4 -1 6 -9
11 -9 15 -16 10 -16 -6 0 -11 -7 -11 -15 0 -8 4 -15 9 -15 4 0 8 -4 8 -10 0
-5 -8 -6 -17 -3 -15 6 -16 5 -3 -9 8 -9 18 -14 22 -12 3 2 4 -4 1 -15 -3 -13
2 -20 18 -24 17 -5 20 -11 16 -28 -4 -13 -1 -29 5 -36 6 -7 7 -13 2 -13 -5 0
-4 -4 3 -8 6 -4 13 -14 15 -22 2 -8 11 -21 20 -30 10 -8 19 -25 21 -38 2 -12
10 -28 17 -35 11 -9 11 -7 0 7 -10 13 -10 17 -3 12 7 -4 18 -16 24 -28 8 -15
8 -19 0 -14 -6 4 -11 3 -11 -3 0 -5 8 -15 18 -20 15 -9 15 -10 0 -11 -11 0
-15 -6 -11 -20 3 -11 10 -17 17 -13 6 4 4 -2 -4 -12 -14 -17 -13 -18 2 -12 12
4 15 2 11 -9 -3 -9 1 -14 12 -14 11 0 15 -5 11 -16 -3 -8 -2 -12 4 -9 6 3 10
-3 10 -14 0 -12 6 -21 13 -21 8 0 7 -4 -3 -10 -10 -6 -11 -10 -2 -10 6 0 12
-5 12 -11 0 -5 -4 -8 -8 -5 -10 6 -9 -55 1 -71 5 -8 4 -13 -2 -13 -6 0 -11 -5
-11 -11 0 -5 4 -8 9 -5 5 3 12 -1 15 -10 4 -10 2 -13 -7 -8 -6 3 1 -5 17 -20
16 -14 23 -26 16 -26 -9 0 -8 -4 4 -13 17 -13 17 -14 1 -30 -10 -10 -12 -17
-5 -17 8 0 10 -10 8 -25 -3 -14 -1 -23 6 -22 6 1 10 -6 8 -15 -2 -11 3 -18 13
-18 8 0 15 -8 16 -17 1 -10 2 -31 3 -46 2 -15 -1 -30 -6 -33 -4 -3 -5 -11 -1
-17 4 -8 1 -8 -9 1 -13 11 -16 10 -14 -5 0 -10 8 -21 16 -25 12 -5 12 -7 -2
-7 -10 -1 -18 -8 -18 -16 0 -8 -7 -15 -15 -15 -18 0 -20 -20 -2 -20 6 -1 -1
-8 -16 -16 -15 -8 -25 -19 -22 -24 4 -6 1 -10 -4 -10 -6 0 -11 -5 -11 -11 0
-5 6 -7 13 -4 6 4 4 0 -5 -8 -17 -13 -18 -43 -2 -69 10 -17 13 -48 4 -48 -4 0
-7 -11 -7 -25 0 -14 3 -25 8 -25 5 0 9 6 9 14 0 8 5 18 12 22 7 5 8 3 3 -6 -6
-10 -3 -12 13 -8 12 4 25 1 29 -4 4 -7 1 -8 -7 -3 -9 5 -11 4 -6 -3 5 -9 13
-9 29 -1 12 7 19 8 15 4 -4 -4 -3 -17 3 -28 8 -14 8 -18 0 -13 -6 4 -11 2 -11
-3 0 -6 4 -11 9 -11 5 0 7 -12 4 -27 -3 -16 -5 -36 -5 -46 0 -9 -3 -15 -9 -12
-5 4 -9 -1 -9 -10 0 -9 -4 -14 -9 -11 -5 3 -12 -1 -15 -10 -3 -8 -2 -13 3 -10
5 3 12 -1 15 -10 3 -8 2 -12 -4 -9 -6 3 -10 1 -10 -4 0 -6 8 -11 18 -11 14 0
15 -2 2 -10 -8 -5 -10 -10 -5 -10 6 0 15 -10 20 -22 6 -13 15 -23 20 -23 6 0
16 -4 24 -9 9 -6 12 -5 8 1 -4 6 4 11 18 11 13 0 23 -6 22 -12 -1 -6 4 -10 11
-9 6 2 12 -7 13 -20 1 -21 1 -21 9 3 5 15 8 18 9 8 1 -9 6 -18 13 -20 12 -4
21 -38 10 -37 -22 3 -24 -3 -4 -17 12 -8 22 -20 22 -26 0 -7 -6 -3 -14 8 -8
10 -18 16 -22 11 -4 -4 -2 -7 4 -7 7 0 12 -7 12 -15 0 -8 6 -15 13 -15 6 0 4
-5 -6 -11 -9 -6 -14 -15 -11 -21 4 -6 2 -8 -4 -4 -6 3 -13 2 -17 -4 -3 -5 1
-10 10 -10 9 0 13 -5 10 -10 -4 -6 -11 -7 -17 -4 -13 8 -3 -11 21 -41 13 -16
13 -18 1 -8 -13 10 -16 8 -16 -7 0 -10 5 -16 11 -12 5 3 4 -1 -3 -10 -11 -14
-10 -18 5 -28 12 -8 13 -10 3 -7 -10 3 -16 -2 -17 -14 -1 -10 3 -19 8 -19 6 0
3 -8 -7 -17 -15 -16 -15 -17 2 -24 16 -7 17 -8 2 -8 -14 -1 -15 -5 -7 -31 6
-16 15 -28 19 -25 4 3 6 -5 2 -17 -4 -16 -2 -19 8 -13 10 6 12 4 7 -8 -4 -11
-2 -14 7 -11 7 3 16 -2 19 -10 4 -9 2 -16 -4 -16 -6 0 -7 -5 -4 -10 4 -6 11
-8 16 -5 5 3 6 0 3 -8 -3 -8 2 -21 10 -30 9 -9 16 -20 16 -25 0 -5 8 -16 18
-23 16 -13 16 -12 3 6 -8 11 -3 8 12 -7 15 -15 27 -32 27 -38 0 -6 5 -8 12 -4
8 5 9 2 5 -9 -3 -9 -1 -19 5 -23 7 -4 8 -3 4 4 -14 23 5 12 39 -22 18 -19 31
-37 27 -41 -4 -4 3 -3 15 4 18 9 24 8 37 -11 9 -12 16 -18 16 -12 0 5 11 10
24 10 14 0 22 -4 20 -8 -6 -9 7 -11 49 -8 15 1 27 -4 27 -10 0 -6 -5 -8 -12
-4 -7 4 -8 3 -4 -4 4 -6 13 -9 21 -5 10 3 15 -1 15 -12 0 -17 23 -45 37 -45 5
0 8 -13 7 -29 -1 -24 1 -28 17 -24 17 5 24 -5 20 -29 0 -3 11 -5 24 -3 13 1
22 -1 20 -6 -3 -4 2 -15 11 -23 14 -15 14 -16 -3 -17 -16 0 -16 -1 2 -9 11 -5
14 -9 7 -9 -10 -1 -10 -6 -1 -22 6 -12 7 -19 1 -15 -5 3 -13 -1 -16 -10 -4
-10 -2 -13 7 -8 9 5 9 4 0 -7 -7 -7 -13 -17 -13 -22 0 -4 6 -5 13 -1 13 9 -11
-26 -28 -38 -5 -4 1 -8 15 -8 20 0 22 -2 10 -10 -13 -8 -13 -10 2 -10 9 0 20
-5 24 -12 4 -7 3 -8 -4 -4 -7 4 -12 2 -12 -3 0 -6 5 -11 10 -11 6 0 10 -6 10
-13 0 -8 12 -19 26 -25 14 -7 23 -8 19 -2 -5 9 18 15 28 8 2 -2 11 3 19 10 13
10 18 9 29 -5 9 -11 10 -14 2 -9 -7 4 -13 2 -13 -3 0 -6 6 -11 13 -11 9 0 8
-3 -2 -9 -11 -7 -11 -9 0 -14 11 -4 11 -6 1 -6 -10 -1 -10 -6 -2 -21 7 -13 7
-20 1 -20 -6 0 -8 -7 -5 -15 4 -8 1 -15 -5 -15 -8 0 -8 -4 1 -14 7 -8 17 -11
22 -8 5 3 7 -4 4 -16 -5 -19 -4 -20 14 -11 15 8 19 8 13 -1 -5 -8 0 -11 16 -8
16 2 27 -4 34 -19 7 -13 15 -20 20 -15 4 4 5 -2 1 -12 -5 -16 -4 -17 9 -6 12
10 15 10 15 -1 0 -11 2 -11 10 1 8 12 10 12 10 -5 0 -17 2 -17 10 -5 8 13 10
12 10 -2 0 -10 7 -18 16 -18 8 0 12 -5 9 -10 -5 -9 1 -12 21 -9 4 0 11 -5 15
-13 7 -10 9 -9 9 4 0 12 5 15 17 11 10 -4 14 -2 10 4 -3 5 0 10 8 10 8 0 12
-4 9 -9 -3 -4 0 -8 5 -8 6 0 11 5 11 11 0 14 24 -11 33 -35 6 -16 10 -16 24
-5 12 10 14 10 9 2 -4 -8 -1 -13 8 -13 9 0 16 -4 16 -10 0 -5 7 -10 16 -10 10
0 14 -5 10 -16 -3 -8 -2 -12 4 -9 6 3 10 1 10 -5 0 -6 5 -8 12 -4 8 5 9 2 5
-9 -3 -9 -1 -19 5 -23 7 -5 8 -2 4 7 -5 9 -3 9 6 -1 7 -9 20 -14 29 -12 9 1
24 -4 32 -12 12 -12 17 -13 20 -3 4 9 6 8 6 -2 1 -11 4 -11 16 -1 13 11 14 10
9 -3 -4 -12 -1 -14 18 -10 13 3 29 10 35 16 9 6 15 4 19 -7 4 -10 13 -15 20
-12 8 3 14 1 14 -5 0 -6 7 -9 15 -5 10 3 15 -1 16 -12 0 -10 3 -12 6 -4 8 20
27 14 48 -18 13 -20 22 -25 27 -17 6 9 8 9 8 0 0 -7 9 -13 21 -13 11 0 17 5
14 10 -4 6 3 9 16 7 23 -4 41 -34 31 -51 -3 -5 0 -6 7 -2 6 4 8 12 5 18 -5 7
-2 8 5 4 7 -5 10 -15 7 -23 -3 -8 -1 -11 4 -8 6 3 10 2 10 -4 0 -6 7 -7 17 -4
10 4 14 2 10 -4 -4 -6 0 -14 9 -17 8 -3 12 -2 9 4 -3 6 1 10 10 10 10 0 13 -5
9 -13 -5 -8 -2 -8 9 2 13 10 17 10 17 1 0 -9 4 -9 17 1 9 8 14 9 10 3 -3 -6 1
-11 9 -11 8 0 13 6 10 12 -5 13 34 12 55 -1 7 -4 9 -3 5 4 -3 6 -2 13 4 17 5
3 10 0 10 -7 0 -9 3 -9 10 2 8 12 10 12 10 1 0 -9 7 -11 21 -8 17 5 18 3 7
-11 -10 -12 -10 -14 0 -8 6 4 12 3 12 -2 0 -11 51 -8 71 4 10 6 10 3 -1 -11
-14 -17 -14 -18 9 -6 15 8 21 9 17 2 -6 -9 19 -14 50 -10 4 0 11 -5 15 -13 7
-10 9 -8 10 7 l0 20 9 -20 c7 -18 8 -19 15 -2 4 9 11 17 17 17 5 0 7 -4 3 -9
-3 -5 -1 -13 5 -16 6 -4 9 -1 8 7 -2 7 2 12 9 11 7 -2 18 7 24 18 9 17 13 19
20 8 7 -12 9 -12 9 0 0 7 6 11 14 8 10 -4 13 -1 10 8 -4 10 0 13 15 10 12 -2
21 0 21 5 0 5 9 7 21 5 15 -3 19 0 15 10 -3 9 2 13 14 12 10 -1 16 -5 13 -11
-4 -5 3 -7 15 -4 12 3 23 1 26 -6 3 -7 5 -6 5 3 1 11 4 11 18 0 10 -8 14 -9
10 -2 -5 8 0 11 13 10 11 -1 20 -4 20 -8 0 -4 18 -7 40 -7 22 0 44 -4 50 -7 5
-3 10 -1 10 4 0 6 5 11 11 11 5 0 7 -5 3 -12 -5 -8 -2 -9 9 -5 10 4 17 2 17
-5 0 -7 4 -7 14 1 10 8 16 9 21 1 8 -13 25 -13 25 1 0 5 -6 7 -12 3 -7 -4 -10
-3 -5 1 9 11 48 14 42 4 -3 -4 2 -10 11 -13 21 -8 24 -8 24 5 0 5 -5 7 -12 3
-7 -4 -8 -3 -4 5 6 9 11 9 22 0 12 -10 16 -8 20 9 7 23 34 38 35 19 0 -7 4 -2
9 11 5 12 18 22 29 22 11 0 27 3 37 7 13 5 15 3 9 -7 -5 -9 -4 -11 4 -6 6 4 9
12 6 17 -4 5 -1 9 5 9 6 0 9 4 5 9 -3 5 4 12 15 16 11 4 18 11 15 16 -4 5 -3
9 2 10 4 0 18 2 31 3 13 2 21 -2 19 -8 -3 -7 6 -11 21 -10 14 0 28 6 30 12 2
7 8 10 13 7 5 -4 6 2 2 11 -4 12 -3 15 5 10 7 -4 12 -2 12 5 0 8 4 8 16 -1 8
-8 14 -9 13 -4 -5 29 2 46 17 40 12 -4 15 -2 10 9 -3 8 -2 14 2 14 30 -5 54 3
49 15 -4 11 1 13 19 10 17 -3 24 0 24 11 0 9 9 15 23 15 18 0 19 2 7 10 -14 9
-7 15 14 11 5 -1 6 5 3 14 -5 13 -2 12 21 -2 24 -16 25 -16 14 -1 -11 13 -11
16 0 14 7 -1 19 -5 25 -9 9 -6 11 -3 7 7 -4 11 0 16 10 16 9 0 16 5 16 11 0 5
-5 7 -12 3 -7 -4 -8 -3 -4 5 4 6 12 9 17 6 5 -4 21 7 36 22 19 20 24 23 19 9
-6 -16 -4 -17 10 -5 18 15 47 22 39 9 -3 -5 5 -7 17 -4 13 3 28 6 34 6 6 1 11
7 11 15 0 10 -3 10 -16 0 -14 -10 -14 -10 -3 5 8 10 20 14 29 11 10 -4 14 -2
10 4 -12 19 43 36 55 18 5 -6 8 -5 8 3 0 7 4 10 10 7 6 -4 7 1 3 11 -5 13 -3
16 10 11 8 -3 18 -1 21 6 3 8 5 7 5 -2 1 -11 5 -10 17 5 8 10 13 13 9 7 -3 -7
-1 -13 6 -13 7 0 9 10 7 25 -5 22 -3 23 10 13 13 -10 14 -10 8 0 -4 6 -3 12 3
12 6 0 7 7 4 17 -4 11 -3 14 5 9 8 -4 12 0 12 11 0 15 2 16 10 3 8 -13 10 -13
11 3 3 31 4 35 13 44 5 5 6 3 2 -4 -11 -20 9 -15 27 5 10 10 14 22 10 26 -4 4
0 4 10 0 12 -4 17 -1 17 10 0 9 5 16 11 16 5 0 7 -6 3 -12 -5 -9 -3 -9 9 1 9
7 14 18 10 24 -3 5 -1 7 5 4 5 -4 17 -4 26 -1 12 5 13 10 6 25 -8 14 -6 20 10
29 11 6 17 16 14 25 -4 10 0 15 12 16 11 0 14 3 7 6 -10 3 -9 8 2 20 8 8 12
20 8 26 -4 7 0 8 11 4 12 -5 16 -3 14 5 -6 16 19 41 31 34 5 -3 7 4 3 16 -4
16 -2 19 9 13 12 -8 12 -6 0 9 -12 15 -12 17 0 14 9 -2 13 4 11 16 -2 10 0 16
5 13 4 -3 13 1 20 8 10 11 10 15 0 19 -9 3 -8 8 4 18 9 7 14 19 11 27 -3 8 0
11 7 7 6 -4 11 -2 11 4 0 6 5 8 10 5 6 -3 10 1 10 10 0 8 7 18 15 21 8 4 12
10 9 15 -3 5 0 9 5 9 6 0 11 10 11 23 0 18 2 19 11 7 8 -11 9 -7 5 18 -4 25
-3 31 7 26 9 -6 9 -4 2 7 -6 8 -10 21 -9 29 1 8 2 21 3 28 0 7 5 11 10 8 5 -3
11 4 14 15 3 12 10 18 16 14 7 -3 8 0 5 9 -4 10 1 18 10 22 14 5 14 9 4 22
-11 13 -10 15 2 10 11 -4 16 1 18 15 0 12 8 26 16 32 13 10 12 13 -2 24 -15
11 -15 11 3 6 11 -3 16 -3 13 0 -4 4 -2 19 3 33 7 18 6 28 -3 34 -10 6 -10 8
2 8 12 0 12 2 2 8 -18 12 -4 42 16 36 14 -5 14 -3 -1 6 -15 10 -16 14 -5 27
14 17 20 46 8 38 -4 -3 -7 6 -6 19 0 13 4 22 7 20 3 -1 6 3 6 11 0 8 -4 12 -9
9 -4 -3 -8 0 -8 5 0 6 5 11 10 11 6 0 10 9 10 21 0 14 5 19 14 16 10 -4 13 -1
9 8 -3 8 -9 13 -13 10 -5 -3 -12 0 -16 7 -4 7 -4 10 1 6 4 -4 14 -3 22 3 11
10 11 15 1 27 -11 13 -10 15 4 9 12 -4 15 -2 11 9 -3 7 0 14 7 14 6 0 9 4 6 9
-4 5 0 12 6 14 10 4 10 6 1 6 -7 1 -13 6 -13 12 0 5 4 8 9 5 9 -6 26 22 23 37
-1 4 3 7 9 7 5 0 7 5 3 11 -3 6 0 15 7 20 11 7 11 9 1 9 -7 0 -10 5 -7 10 3 6
0 10 -7 10 -10 0 -9 3 2 9 8 6 18 7 22 5 4 -3 5 2 2 10 -3 9 -11 13 -18 10 -6
-3 -2 2 8 10 19 15 19 16 1 16 -18 0 -18 1 1 16 10 8 13 12 5 8 -9 -5 -12 -3
-7 5 4 6 15 10 24 9 9 -2 16 2 15 8 -1 7 3 11 10 10 13 -1 17 6 17 30 0 8 -4
13 -8 10 -7 -4 -8 19 -3 67 1 5 5 6 10 3 5 -3 12 1 15 10 9 22 8 24 -11 24
-15 0 -16 2 -3 10 12 8 11 10 -7 10 -13 0 -23 4 -23 10 0 5 8 7 18 3 14 -5 13
-3 -3 10 -11 9 -16 17 -11 17 5 0 3 7 -4 15 -11 13 -10 14 4 9 14 -5 15 -3 6
20 -6 16 -6 25 -1 21 5 -3 13 0 17 6 4 7 3 9 -3 6 -6 -4 -16 0 -23 8 -7 8 -9
15 -4 15 5 0 0 8 -11 17 -16 13 -17 15 -2 10 15 -6 22 7 18 35 0 4 6 5 14 2 9
-4 15 0 15 9 0 8 6 18 13 20 8 4 7 6 -3 7 -10 0 -6 6 10 16 25 15 25 15 2 8
-23 -6 -24 -6 -5 13 10 11 23 17 28 14 6 -2 4 2 -3 11 -10 13 -10 17 3 22 8 3
15 13 15 21 0 9 4 14 8 11 5 -3 15 7 23 22 20 38 41 62 51 56 7 -5 12 10 9 29
0 4 5 7 12 8 6 0 3 4 -8 9 -18 8 -18 9 -2 9 15 1 16 4 6 22 -6 12 -7 19 -1 15
12 -7 26 25 14 33 -4 3 -8 16 -8 28 0 17 3 19 13 11 10 -8 12 -7 7 6 -3 9 -10
16 -15 16 -5 0 -9 5 -9 11 0 5 6 7 13 3 9 -6 8 -4 -1 8 -15 19 -19 69 -7 88 6
10 4 12 -10 6 -16 -6 -16 -4 -4 11 12 15 12 16 -5 10 -16 -6 -17 -5 -6 8 8 10
9 15 1 15 -6 0 -11 4 -11 10 0 5 7 7 15 4 10 -4 13 0 10 16 -3 15 0 20 8 17 7
-3 14 3 14 14 1 10 -2 19 -8 19 -5 0 -9 5 -9 11 0 5 6 7 13 3 8 -6 8 -3 -1 9
-8 9 -11 20 -8 26 3 5 -1 12 -10 15 -13 5 -14 9 -4 21 9 10 9 15 1 15 -6 0
-11 5 -11 11 0 5 6 7 13 3 7 -5 7 -1 -2 10 -13 15 -13 19 0 27 12 7 12 9 -1 9
-8 1 -5 5 8 11 15 6 21 13 15 21 -11 19 -13 39 -2 32 5 -3 6 -10 3 -16 -4 -7
-2 -8 5 -4 16 10 -4 36 -28 36 -13 0 -13 2 -2 9 9 6 11 15 6 27 -13 31 -14 45
-3 38 7 -5 8 -2 2 7 -14 23 -14 41 1 35 9 -3 12 0 8 10 -3 8 1 21 8 30 10 13
10 17 0 24 -11 6 -9 10 7 19 14 8 19 17 15 29 -6 15 -5 15 10 3 11 -9 17 -10
17 -2 0 6 9 11 20 11 11 0 20 -4 20 -8 0 -14 73 -7 78 6 3 10 7 10 20 0 13
-11 14 -11 8 0 -9 15 12 45 25 36 5 -3 9 0 9 6 0 6 5 8 11 4 8 -4 9 0 4 15 -5
17 -3 20 11 14 14 -5 16 -3 11 12 -6 14 -5 16 6 6 11 -8 19 -6 37 9 26 23 36
26 24 7 -5 -7 -1 -4 9 6 9 11 17 17 17 14 0 -3 11 4 24 16 20 17 22 25 13 36
-10 12 -9 14 8 8 17 -6 18 -5 5 5 -9 7 -15 19 -14 26 1 6 2 16 3 22 0 5 12 9
25 8 16 -2 22 -7 18 -17 -4 -10 -1 -13 11 -8 12 4 17 1 17 -11 0 -13 2 -14 9
-3 7 11 9 11 14 0 5 -12 7 -12 15 0 7 9 12 10 16 2 4 -6 13 -11 19 -11 7 0 6
4 -3 10 -8 5 -10 10 -4 10 5 0 15 -5 22 -12 9 -9 12 -9 12 1 0 9 4 10 13 3 6
-5 21 -6 32 -2 14 5 25 1 38 -13 9 -11 17 -16 17 -11 0 12 47 11 57 -1 5 -4 3
-6 -2 -2 -6 3 -17 2 -25 -3 -9 -6 6 -7 38 -3 43 4 52 2 52 -10 0 -9 10 -19 22
-23 13 -4 29 -14 36 -23 11 -13 12 -13 7 -1 -4 8 1 6 9 -4 12 -15 16 -16 16
-5 1 8 7 3 16 -11 9 -15 13 -18 9 -6 -5 16 -3 17 10 6 8 -7 15 -17 15 -22 0
-13 21 -33 43 -41 9 -3 17 -13 17 -22 0 -8 5 -15 10 -15 6 0 10 -7 10 -16 0
-10 5 -14 16 -10 8 3 13 2 9 -3 -3 -5 3 -17 12 -27 17 -17 17 -18 1 -11 -10 3
-18 2 -18 -3 0 -6 6 -10 14 -10 8 0 17 -7 20 -16 4 -10 2 -13 -7 -8 -9 6 -9 5
0 -7 6 -8 13 -26 15 -39 2 -14 7 -31 12 -39 7 -11 6 -12 -5 -6 -12 8 -12 6 0
-8 11 -14 11 -17 0 -17 -10 0 -10 -3 -1 -12 7 -7 12 -17 12 -23 0 -5 -5 -3
-10 5 -6 9 -10 10 -10 3 0 -6 5 -15 11 -19 8 -4 7 -9 -2 -15 -12 -8 -12 -11 0
-18 12 -8 12 -12 2 -25 -7 -9 -11 -27 -8 -42 2 -14 -1 -31 -9 -39 -11 -10 -11
-15 -1 -18 9 -4 8 -8 -3 -16 -13 -10 -13 -12 0 -20 12 -8 12 -13 -4 -30 -14
-15 -15 -23 -6 -40 8 -16 8 -21 -2 -21 -11 0 -10 -2 0 -9 10 -6 9 -11 -4 -22
-15 -12 -17 -12 -9 0 5 10 4 12 -4 7 -9 -6 -9 -11 0 -22 9 -11 8 -14 -5 -14
-10 0 -14 -5 -11 -10 4 -6 12 -8 18 -4 7 3 4 -1 -5 -9 -10 -8 -18 -23 -18 -33
0 -14 -2 -16 -9 -6 -6 10 -10 8 -15 -10 -14 -43 -15 -69 -4 -62 7 4 8 2 4 -5
-4 -6 -11 -9 -16 -6 -5 3 -12 -6 -16 -20 -3 -13 -10 -23 -14 -20 -4 3 -11 -2
-14 -11 -9 -23 -8 -26 7 -18 16 10 -13 -28 -30 -39 -7 -4 -13 -15 -13 -24 0
-10 -6 -13 -16 -9 -14 5 -15 4 -5 -8 9 -11 8 -15 -4 -20 -9 -3 -14 -9 -12 -13
7 -11 -19 -33 -29 -25 -5 4 -2 -1 6 -11 11 -15 11 -18 -1 -15 -8 2 -15 -7 -17
-20 -2 -14 -8 -20 -15 -15 -7 3 -3 -3 7 -15 11 -12 23 -22 29 -22 11 0 47 -39
47 -52 0 -4 5 -8 11 -8 5 0 7 5 3 12 -4 7 -3 8 5 4 9 -6 9 -11 -1 -24 -10 -12
-10 -14 0 -8 7 4 12 2 12 -4 0 -7 7 -9 16 -6 8 3 12 2 9 -4 -3 -6 1 -10 11
-10 11 0 15 -6 11 -20 -3 -10 -2 -19 2 -18 20 2 31 -4 31 -17 0 -8 4 -15 10
-15 5 0 6 -8 3 -17 -6 -16 -5 -17 13 -3 10 8 16 11 12 6 -4 -5 1 -16 10 -25
12 -10 13 -13 2 -7 -8 5 -3 -2 12 -17 15 -15 32 -27 38 -27 10 0 14 -15 11
-34 -1 -5 4 -4 12 3 12 9 16 8 21 -5 6 -16 8 -15 21 2 9 10 15 15 14 9 -3 -25
3 -35 21 -35 11 0 20 -5 20 -12 0 -20 31 -47 48 -41 12 5 14 2 9 -13 -7 -19
-7 -19 8 0 8 11 15 15 15 8 0 -6 7 -9 15 -6 9 4 15 0 15 -7 0 -9 3 -10 8 -4
13 18 40 16 45 -2 4 -16 5 -16 6 1 1 20 1 20 17 0 8 -10 13 -14 10 -7 -4 6 -2
14 4 18 5 3 10 1 10 -6 0 -8 4 -8 15 1 12 10 15 10 16 -1 0 -8 4 -5 9 6 7 17
9 17 9 3 1 -21 5 -22 32 -8 11 6 19 7 18 3 -4 -21 2 -33 13 -27 8 5 9 2 5 -9
-4 -11 -1 -17 9 -17 18 0 46 -25 37 -34 -4 -3 1 -6 11 -6 9 0 15 -4 11 -9 -3
-5 2 -16 11 -25 8 -9 13 -20 10 -24 -7 -11 30 -42 40 -34 4 4 3 0 -2 -8 -15
-27 -14 -43 2 -29 12 10 13 9 8 -6 -4 -10 -1 -21 7 -26 12 -8 12 -11 -1 -20
-12 -8 -9 -9 10 -3 21 6 23 5 13 -8 -15 -18 -7 -29 15 -21 12 5 14 2 9 -11 -4
-10 -3 -15 4 -11 5 4 17 1 25 -6 12 -10 16 -9 21 9 3 12 10 19 15 16 5 -3 12
3 15 15 3 12 10 21 17 21 6 0 4 5 -4 11 -12 9 -11 10 8 6 13 -3 22 0 22 7 0
18 49 58 62 50 7 -4 8 -3 4 4 -4 7 -1 12 6 12 10 0 10 2 -1 9 -9 6 -10 11 -2
15 6 4 11 5 11 2 0 -3 8 2 18 11 12 12 14 21 8 25 -7 5 -3 8 8 8 12 0 16 5 13
15 -4 8 -1 17 5 21 7 5 8 2 3 -6 -5 -8 -3 -11 6 -8 8 3 13 11 11 18 -2 7 3 10
10 7 7 -2 21 6 31 19 17 23 17 23 0 18 -11 -3 -9 0 5 8 12 8 19 18 15 23 -4 4
0 5 9 2 12 -4 16 -1 13 13 -3 13 1 17 11 13 10 -3 14 2 14 18 0 19 2 21 10 9
8 -12 10 -11 10 8 0 14 8 26 23 32 12 5 16 9 10 9 -7 1 -13 5 -13 10 0 6 9 8
21 6 16 -3 18 -1 10 9 -9 10 -8 15 4 20 9 3 13 2 10 -4 -11 -17 0 -11 18 11
18 20 18 21 -5 14 -17 -5 -15 -1 10 14 17 11 32 24 32 27 0 4 -8 0 -17 -7 -16
-13 -17 -12 -4 4 8 10 20 16 27 13 8 -3 11 2 9 15 -2 11 0 17 5 14 5 -3 11 -1
15 5 4 6 11 7 17 4 7 -4 8 -2 4 4 -4 6 -14 9 -24 6 -15 -5 -15 -5 1 6 9 6 21
9 26 6 5 -3 8 0 7 7 0 6 2 12 6 12 13 0 36 39 31 52 -3 7 5 16 17 21 12 4 21
11 21 15 -3 22 0 27 11 21 7 -5 9 -2 5 9 -4 10 0 18 12 22 10 3 26 21 36 40
11 18 23 32 27 29 4 -3 8 0 8 5 0 6 -6 11 -12 12 -7 0 -3 4 9 9 12 5 27 19 33
32 l11 23 -20 -24 c-12 -13 -21 -19 -21 -13 0 6 11 19 25 30 13 11 21 22 18
26 -3 3 -1 6 6 6 7 0 10 4 6 9 -3 5 0 13 6 17 8 4 9 3 5 -4 -4 -7 -2 -12 3
-12 6 0 11 9 11 20 0 11 5 20 10 20 6 0 10 7 10 15 0 8 7 15 15 15 8 0 15 5
15 11 0 5 -6 7 -12 3 -9 -5 -9 -3 1 9 7 9 17 14 22 11 13 -8 11 10 -3 25 -11
10 -10 11 5 6 12 -5 17 -2 17 11 0 14 2 16 9 6 6 -10 10 -4 14 18 4 17 10 29
14 27 11 -6 44 31 33 38 -4 3 -11 0 -13 -5 -3 -6 -4 -5 -2 2 1 7 8 12 14 10
13 -2 36 45 32 67 -2 8 3 12 12 8 10 -4 13 1 11 19 -1 15 2 22 9 17 6 -4 8 0
4 10 -4 10 -2 16 6 14 7 -1 12 6 12 15 0 9 4 20 8 24 4 4 7 1 7 -6 0 -7 3 -10
6 -7 4 4 1 13 -5 21 -9 11 -9 16 0 22 8 5 10 3 4 -7 -5 -8 -4 -10 0 -6 11 10
16 39 6 32 -4 -2 -8 2 -8 10 0 8 4 12 9 9 4 -3 8 0 8 6 0 6 5 8 11 4 8 -5 8
-1 0 14 -10 18 -8 20 8 17 13 -2 18 1 15 10 -3 7 -1 16 5 20 6 3 11 12 11 18
0 7 -4 6 -10 -3 -8 -12 -9 -10 -7 8 2 13 11 31 20 42 11 13 12 20 4 23 -7 3
-1 9 13 15 22 9 22 11 5 12 -14 0 -16 3 -7 9 14 8 17 33 9 68 -3 13 -1 26 5
29 7 5 8 2 3 -6 -5 -9 -4 -11 4 -6 6 4 8 13 4 19 -10 16 -13 58 -4 53 4 -3 8
1 8 9 0 8 -3 12 -6 11 -3 -2 -6 20 -7 49 0 30 3 52 7 49 4 -2 5 5 2 16 -3 11
-10 17 -17 13 -6 -3 -6 0 2 8 17 19 15 32 -4 25 -14 -5 -15 -4 -4 9 10 12 10
15 0 15 -10 0 -10 3 -1 14 9 11 9 20 2 34 -6 11 -7 22 -4 26 3 3 -2 6 -13 6
-16 0 -17 2 -4 10 13 9 7 14 -12 11 -4 0 -3 10 2 24 8 20 5 27 -18 45 -15 11
-20 19 -12 17 8 -2 12 -2 8 0 -5 3 -8 11 -8 18 0 8 -9 20 -21 28 -11 8 -21 24
-22 36 -1 11 -5 21 -10 21 -4 0 -5 5 -2 10 3 6 -1 10 -9 10 -9 0 -16 5 -16 11
0 5 5 7 12 3 7 -4 8 -3 4 5 -6 9 -11 9 -24 -1 -10 -8 -13 -9 -9 -1 4 6 1 18
-7 26 -11 11 -12 17 -3 27 9 10 9 11 0 6 -8 -5 -13 -1 -13 9 0 10 -5 13 -12 9
-8 -5 -9 0 -6 14 4 13 2 20 -4 16 -5 -3 -16 3 -24 15 -8 12 -20 21 -26 21 -7
0 -3 -7 8 -15 18 -14 17 -14 -8 -4 -16 7 -28 20 -28 30 0 10 -9 24 -21 32 -15
11 -17 16 -7 20 11 4 11 6 0 6 -7 1 -10 6 -6 13 5 8 2 9 -9 5 -10 -4 -16 -2
-14 6 1 7 -4 11 -12 9 -11 -2 -12 0 -3 11 14 16 6 28 -14 20 -8 -3 -14 0 -14
7 0 6 -5 8 -11 4 -8 -4 -8 0 0 15 10 18 9 20 -5 14 -11 -4 -15 -3 -10 5 3 6
-3 13 -14 17 -11 3 -19 9 -19 13 3 19 -2 42 -8 41 -20 -3 -34 2 -28 10 7 12
-29 33 -39 23 -4 -3 -4 1 0 11 4 12 1 17 -11 17 -9 0 -13 5 -10 10 3 6 -1 10
-10 10 -9 0 -13 5 -10 10 3 6 -2 10 -12 10 -15 0 -16 2 -3 10 12 8 11 10 -7
10 -14 0 -23 6 -23 16 0 8 -4 13 -9 10 -5 -3 -11 3 -14 14 -3 11 -21 27 -41
37 -20 9 -36 22 -36 29 0 7 -9 16 -20 19 -11 3 -20 11 -20 16 0 6 -4 7 -10 4
-5 -3 -10 1 -10 9 0 9 -4 16 -8 16 -16 0 -52 37 -44 46 4 4 -2 2 -12 -6 -13
-10 -17 -10 -12 -2 5 8 0 12 -13 12 -12 0 -21 5 -21 11 0 5 -4 7 -10 4 -5 -3
-10 2 -11 12 0 10 -3 13 -5 6 -4 -8 -11 -7 -23 5 -10 9 -16 20 -14 24 2 4 -4
5 -13 1 -10 -4 -15 -2 -11 4 3 5 0 10 -8 10 -8 0 -12 -4 -9 -8 6 -10 -36 -3
-45 7 -3 4 3 4 13 0 16 -5 17 -4 6 8 -6 9 -17 14 -23 13 -7 -1 -11 4 -10 11 2
6 -3 12 -11 12 -8 0 -17 9 -21 20 -3 11 -9 19 -13 19 -24 -4 -42 3 -42 15 0 8
-5 18 -12 22 -7 4 -8 3 -4 -4 4 -7 2 -12 -3 -12 -6 0 -11 5 -11 11 0 7 -9 9
-21 6 -12 -3 -22 0 -26 9 -4 11 -9 12 -18 4 -10 -8 -15 -6 -20 9 -3 12 -12 21
-19 21 -8 0 -20 8 -27 18 -12 15 -12 16 1 7 9 -5 7 -2 -3 7 -11 10 -23 15 -28
12 -5 -3 -9 1 -9 8 0 9 -3 9 -10 -2 -6 -10 -10 -11 -10 -2 0 6 -9 12 -21 12
-14 0 -19 5 -16 14 4 10 1 13 -9 9 -7 -3 -14 0 -14 7 0 6 -4 8 -10 5 -5 -3
-22 2 -37 12 -21 14 -25 14 -18 3 8 -13 7 -13 -8 -1 -14 11 -20 11 -34 0 -11
-10 -14 -10 -9 -1 5 8 0 12 -13 12 -12 0 -21 5 -21 10 0 6 -7 10 -16 10 -8 0
-12 5 -9 10 4 6 -5 10 -19 10 -14 0 -26 5 -26 11 0 5 5 7 12 3 6 -4 8 -3 5 4
-4 5 -17 8 -30 4 -19 -5 -20 -3 -10 10 11 12 9 14 -10 14 -16 -1 -21 4 -20 19
1 11 0 14 -3 8 -3 -7 -10 -13 -15 -13 -6 0 -7 6 -3 13 5 7 0 6 -11 -3 -10 -8
-16 -10 -12 -3 5 7 -1 13 -15 15 -13 2 -23 8 -23 15 0 6 -4 15 -9 20 -5 5 -6
3 -2 -4 4 -7 3 -13 -2 -13 -6 0 -13 8 -16 17 -6 15 -8 15 -16 3 -7 -10 -10
-11 -10 -2 0 22 -2 27 -12 39 -6 7 -14 10 -19 7 -5 -3 -9 0 -9 5 0 6 -3 10 -7
10 -5 -1 -17 -1 -28 0 -17 1 -18 3 -5 11 8 5 10 10 5 10 -6 0 -16 -5 -23 -12
-9 -9 -12 -9 -12 0 0 7 -7 12 -16 12 -9 0 -12 5 -8 13 6 10 4 10 -7 0 -13 -13
-38 -19 -26 -6 9 8 -12 33 -27 33 -6 0 -4 -5 4 -10 9 -6 10 -10 3 -10 -6 0
-19 10 -27 22 -15 21 -20 18 -17 -7 0 -5 -5 -1 -12 9 -6 11 -20 27 -29 37 -12
13 -13 19 -5 23 9 3 8 8 -3 15 -12 9 -13 12 -1 20 9 6 10 10 2 16 -7 3 -9 14
-7 23 3 10 1 24 -4 32 -5 9 -5 19 2 27 8 10 7 12 -4 8 -9 -4 -15 0 -15 10 0
10 6 14 16 10 13 -4 13 -3 -1 8 -14 11 -15 16 -5 27 8 8 8 11 1 7 -7 -4 -15 0
-18 9 -3 8 -2 12 4 9 6 -3 7 1 4 9 -3 9 -9 14 -13 12 -4 -3 -8 5 -8 17 -2 17
0 18 7 7 7 -11 9 -10 7 7 0 12 -4 20 -8 17 -4 -2 -7 4 -7 13 0 10 -3 27 -7 37
-5 12 -5 17 2 13 5 -3 10 0 10 8 0 8 -4 12 -8 10 -11 -7 -5 29 6 37 6 5 5 8
-2 8 -7 0 -13 5 -13 11 0 5 4 7 10 4 6 -3 7 1 4 9 -3 9 -10 13 -15 10 -5 -3
-9 2 -9 10 0 9 -4 16 -10 16 -5 0 -20 10 -32 22 -19 19 -20 21 -2 15 18 -7 18
-6 2 6 -14 11 -15 16 -5 27 9 10 9 11 0 6 -8 -5 -13 -1 -13 9 0 11 -5 15 -14
12 -11 -4 -13 -1 -9 10 5 12 3 14 -8 8 -12 -8 -12 -6 0 8 11 14 11 17 0 17
-11 0 -11 2 1 10 12 8 12 10 1 10 -11 0 -11 3 0 16 9 11 10 18 2 22 -6 4 -13
14 -15 22 -4 20 -22 39 -30 33 -8 -4 -12 12 -9 36 2 7 -2 10 -8 6 -6 -3 -11 2
-11 12 0 15 -2 16 -11 3 -9 -12 -10 -12 -5 4 4 11 1 23 -6 27 -7 5 -13 14 -14
21 0 7 -2 23 -2 36 -2 16 -6 21 -14 16 -8 -5 -7 0 2 11 9 11 10 16 3 11 -8 -4
-13 -1 -14 8 -3 34 -19 67 -29 61 -4 -3 -10 2 -13 9 -3 8 -1 17 6 20 7 2 5 5
-5 5 -11 1 -15 8 -14 25 2 18 -1 23 -12 18 -11 -4 -13 -2 -7 8 6 9 4 12 -7 8
-8 -4 -15 0 -15 8 0 7 4 11 9 8 4 -3 8 -1 8 5 0 5 -9 13 -20 16 -11 4 -18 10
-15 15 3 5 -2 15 -11 24 -8 9 -13 20 -9 26 3 6 -1 7 -9 4 -12 -5 -16 0 -16 17
0 19 -2 21 -10 9 -8 -12 -10 -11 -10 8 0 13 -6 22 -15 22 -8 0 -15 5 -15 11 0
5 6 7 13 4 6 -4 -3 7 -21 24 -18 18 -30 36 -26 43 4 7 3 8 -4 4 -7 -4 -12 -2
-12 4 0 6 -5 8 -12 4 -9 -6 -9 -3 0 9 12 14 11 16 -9 12 -17 -3 -20 -2 -11 7
12 12 -7 38 -28 38 -6 0 -9 3 -7 8 2 4 -6 17 -19 30 -15 14 -24 18 -25 10 -1
-7 -4 -2 -8 12 -4 14 -14 24 -23 24 -11 -1 -15 5 -13 18 2 10 0 16 -6 13 -12
-8 -36 16 -33 33 1 7 0 8 -3 2 -7 -15 -23 -12 -23 6 0 8 -4 12 -10 9 -5 -3
-10 -1 -10 5 0 6 -5 8 -12 4 -8 -5 -9 -2 -5 10 6 14 4 15 -14 5 -15 -8 -19 -8
-15 0 4 6 2 11 -4 11 -6 0 -8 5 -4 12 5 7 2 9 -9 5 -12 -4 -14 -2 -10 10 5 13
2 15 -11 10 -13 -5 -17 -3 -13 6 3 8 -1 14 -9 14 -8 0 -14 -4 -14 -9 0 -4 -5
-8 -11 -8 -5 0 -7 6 -3 13 5 8 2 8 -9 -2 -13 -10 -17 -10 -17 -1 0 10 -3 10
-16 0 -13 -11 -16 -10 -21 8 -3 12 -9 19 -14 16 -5 -3 -9 3 -9 13 0 15 -2 16
-10 3 -7 -11 -10 -11 -10 -2 0 8 -5 10 -12 6 -10 -6 -10 -5 -1 7 10 13 10 16
0 16 -34 1 -69 22 -60 35 2 4 -3 5 -11 2 -11 -4 -16 0 -16 10 0 9 -7 16 -16
16 -8 0 -12 5 -9 10 3 6 -1 10 -10 10 -11 0 -15 5 -11 16 3 8 2 12 -4 9 -6 -3
-10 -1 -10 4 0 6 -7 11 -16 11 -8 0 -12 5 -9 10 3 6 -1 10 -10 10 -10 0 -13 5
-9 13 5 7 1 7 -12 -3 -10 -8 -16 -11 -12 -6 4 5 0 15 -8 24 -14 13 -17 13 -25
1 -5 -8 -9 -9 -9 -3 0 5 4 14 9 20 6 5 0 10 -16 11 -14 0 -28 5 -32 10 -10 15
-43 25 -35 10 5 -8 2 -8 -9 2 -9 7 -15 16 -13 20 2 3 -6 6 -19 6 -16 0 -21 -4
-17 -15 5 -13 4 -13 -10 0 -9 8 -14 18 -12 21 3 5 -32 17 -68 23 -3 1 -10 5
-15 10 -5 5 -2 6 6 1 10 -6 12 -4 7 4 -6 9 -11 9 -24 -1 -13 -11 -14 -11 -7 1
6 11 4 13 -9 8 -9 -4 -14 -3 -11 2 3 5 1 12 -5 16 -5 3 -10 1 -10 -4 0 -6 -5
-11 -11 -11 -5 0 -7 6 -3 13 5 7 0 6 -11 -3 -10 -8 -16 -10 -13 -5 4 6 3 17
-3 25 -5 9 -9 10 -9 3 0 -9 -8 -8 -27 2 -16 8 -37 12 -48 9 -13 -3 -16 -2 -8
3 9 6 7 12 -8 22 -15 9 -19 9 -14 0 5 -7 3 -10 -6 -7 -8 3 -13 10 -12 16 1 5
-7 8 -17 5 -11 -3 -28 1 -37 8 -13 11 -15 11 -9 1 6 -10 0 -10 -22 2 -17 9
-37 13 -46 10 -8 -3 -19 3 -25 14 -10 19 -33 24 -46 10 -10 -10 -43 3 -49 18
-5 12 -10 13 -27 3 -19 -10 -21 -9 -15 6 5 15 4 16 -9 5 -9 -7 -15 -9 -14 -4
4 21 -2 28 -11 14 -8 -12 -11 -13 -19 -1 -7 11 -9 11 -14 0 -3 -9 -6 -7 -6 5
-1 20 -1 20 -15 0 -14 -18 -15 -18 -25 6 -8 21 -10 22 -11 5 0 -17 -2 -17 -10
-5 -7 11 -10 11 -10 2 0 -7 -5 -10 -10 -7 -6 4 -8 12 -4 18 3 7 -2 3 -10 -7
-16 -20 -16 -20 -16 0 0 16 -2 17 -10 4 -6 -10 -10 -11 -10 -2 0 6 -11 12 -24
12 -14 0 -28 5 -31 10 -4 7 -13 6 -27 -1 -15 -8 -19 -8 -14 0 10 15 -17 14
-34 -1 -12 -11 -12 -10 -2 4 10 12 10 18 1 23 -6 4 -15 1 -20 -6 -8 -12 -10
-12 -18 0 -7 11 -9 11 -14 0 -4 -10 -6 -10 -6 -1 -1 6 -6 12 -12 12 -5 0 -8
-4 -5 -8 3 -5 -1 -9 -9 -9 -8 0 -11 5 -8 10 4 6 -2 8 -15 5 -12 -4 -25 -1 -29
4 -4 7 -1 8 7 3 8 -5 11 -4 6 3 -4 6 -13 9 -21 5 -8 -3 -15 -1 -15 3 0 13 -80
11 -81 -1 0 -5 -4 -1 -9 10 -5 12 -9 14 -9 6 -1 -11 -5 -10 -17 5 -8 10 -13
14 -10 8 10 -19 -23 -25 -33 -6 -7 11 -11 12 -11 4z m-690 -47 c-7 -9 -15 -13
-19 -10 -3 3 1 10 9 15 21 14 24 12 10 -5z m-750 -635 c0 -5 -5 -10 -11 -10
-5 0 -7 5 -4 10 3 6 8 10 11 10 2 0 4 -4 4 -10z m-527 -825 c-3 -9 -8 -14 -10
-11 -3 3 -2 9 2 15 9 16 15 13 8 -4z m4697 -830 c0 -8 -2 -15 -4 -15 -2 0 -6
7 -10 15 -3 8 -1 15 4 15 6 0 10 -7 10 -15z m-6650 -251 c0 -8 -19 -13 -24 -6
-3 5 1 9 9 9 8 0 15 -2 15 -3z m2576 -189 c7 -5 9 -14 6 -19 -3 -5 2 -7 11 -3
9 3 19 2 23 -4 3 -6 11 -3 18 7 10 13 15 14 21 4 6 -9 4 -11 -6 -5 -8 5 -10 4
-6 0 11 -13 37 -15 37 -4 0 6 5 7 10 4 6 -4 8 -12 4 -18 -3 -7 1 -4 9 6 13 15
19 16 36 7 17 -8 21 -8 19 2 -2 8 9 14 25 16 17 2 25 8 21 14 -5 7 -2 8 7 2
23 -14 49 -15 49 -1 0 8 3 9 8 1 12 -19 36 -21 50 -5 8 9 11 11 8 4 -4 -6 -2
-14 4 -18 5 -3 10 0 10 7 0 9 3 9 10 -2 7 -11 10 -11 10 -2 0 7 5 10 10 7 6
-4 7 -11 4 -17 -5 -7 -2 -8 5 -4 7 5 10 15 6 23 -4 12 -2 13 7 5 16 -12 118
-13 135 0 7 6 14 4 20 -4 4 -7 27 -13 50 -14 23 0 40 4 37 8 -9 14 9 9 29 -9
12 -11 17 -12 12 -4 -6 11 -3 13 13 9 12 -4 22 -2 22 4 0 5 6 6 13 1 22 -14
77 -10 77 7 1 9 6 5 15 -10 9 -16 14 -19 15 -10 0 13 9 15 48 10 35 -4 50 -1
60 10 7 8 12 11 11 5 -3 -22 2 -29 11 -15 8 12 10 12 11 -5 l0 -20 9 20 c5 11
9 15 9 8 1 -8 10 -9 31 -3 21 6 30 5 30 -3 0 -7 4 -6 10 3 6 9 10 11 10 3 0
-7 7 -10 16 -6 9 3 20 0 25 -8 8 -12 10 -12 18 0 6 9 11 10 15 2 4 -6 13 -11
19 -11 7 0 6 4 -3 10 -8 5 -10 10 -5 10 6 0 16 -5 23 -12 9 -9 12 -9 12 1 0
11 3 11 17 0 11 -10 14 -10 9 -1 -4 6 -3 12 3 12 5 0 11 -5 13 -11 3 -9 11 -8
28 1 23 12 24 12 12 -3 -12 -14 -11 -16 8 -12 16 3 20 0 16 -10 -4 -12 -2 -13
14 -3 10 7 16 17 13 23 -4 5 6 -1 20 -14 25 -23 27 -23 27 -5 1 18 1 18 11 1
10 -18 11 -18 26 0 8 10 12 12 8 6 -3 -7 -1 -13 5 -13 6 0 8 -5 4 -12 -5 -9
-2 -9 9 1 13 10 17 10 17 1 0 -10 3 -10 15 0 13 10 19 9 36 -6 19 -17 20 -17
13 2 -7 19 -7 19 14 0 22 -19 22 -19 23 0 0 18 1 18 9 -1 5 -11 9 -15 9 -9 1
14 53 6 63 -10 5 -7 8 -6 8 4 0 13 1 13 10 0 7 -11 10 -11 10 -2 0 7 5 10 10
7 6 -4 8 -10 5 -15 -3 -4 4 -6 15 -3 11 3 17 10 13 16 -3 6 -1 7 6 3 6 -4 9
-11 6 -16 -3 -5 -1 -11 5 -15 5 -3 10 0 10 8 0 16 50 11 62 -7 9 -13 61 -14
70 -1 4 6 8 0 8 -12 0 -13 4 -23 10 -23 5 0 7 6 4 13 -3 8 2 14 10 14 8 0 13
-4 11 -8 -7 -10 14 -15 58 -14 26 0 37 -4 38 -15 0 -8 3 -10 5 -4 4 10 22 10
78 1 11 -2 22 -9 24 -15 2 -7 8 -12 13 -12 6 0 7 6 2 13 -4 6 6 4 21 -7 16
-10 25 -13 21 -6 -6 9 -3 9 14 1 11 -7 21 -17 21 -24 0 -7 3 -8 8 -2 10 14 42
18 42 5 0 -6 -4 -9 -9 -5 -5 3 -12 1 -16 -4 -3 -6 6 -8 21 -5 16 3 23 1 19 -6
-3 -5 -1 -10 5 -10 6 0 18 -6 26 -14 10 -11 11 -15 1 -19 -6 -2 0 -4 15 -3 14
0 24 4 21 9 -2 4 1 7 6 7 6 0 11 -5 11 -11 0 -8 6 -7 16 2 14 11 19 10 36 -11
21 -26 68 -35 80 -16 5 7 8 7 8 -3 0 -7 6 -11 15 -7 8 3 15 1 15 -5 0 -6 7 -8
16 -5 8 3 13 2 10 -2 -2 -4 -1 -14 5 -22 5 -8 9 -10 9 -4 0 6 7 11 15 11 8 0
12 -4 9 -8 -2 -4 0 -10 6 -14 5 -3 10 0 10 7 0 9 2 10 8 2 4 -7 19 -12 33 -12
15 0 36 -9 48 -21 23 -23 28 -37 9 -25 -7 4 -8 3 -4 -5 4 -6 11 -9 16 -6 4 3
16 -3 27 -13 10 -9 12 -13 3 -8 -8 5 -3 -2 12 -17 15 -15 32 -27 39 -27 6 0 9
-7 5 -15 -3 -8 -2 -14 2 -14 20 3 32 -3 32 -16 0 -8 7 -15 16 -15 10 0 14 -6
10 -15 -3 -8 -2 -14 2 -14 4 1 14 1 22 0 13 -1 13 -2 0 -11 -12 -8 -10 -10 10
-11 18 0 21 -2 9 -7 -15 -6 -14 -11 8 -45 14 -22 28 -35 35 -31 7 4 8 3 4 -5
-4 -6 -12 -8 -18 -5 -7 5 -8 2 -2 -7 15 -24 13 -38 -4 -32 -11 3 -9 -3 7 -16
17 -16 19 -21 7 -21 -17 0 -11 -29 8 -42 7 -5 6 -8 -3 -8 -10 0 -5 -11 15 -32
16 -18 21 -26 12 -19 -22 17 -23 8 -2 -13 8 -9 10 -16 4 -16 -7 0 -8 -6 -2
-17 13 -24 5 -64 -15 -83 -9 -8 -13 -9 -9 -3 5 9 2 11 -8 7 -9 -3 -13 -11 -10
-18 3 -6 0 -4 -8 5 -7 9 -19 14 -27 11 -9 -3 -11 0 -6 8 6 9 4 11 -4 5 -7 -4
-25 -8 -41 -9 -23 -2 -27 1 -18 11 9 11 6 12 -16 3 -21 -8 -28 -7 -32 5 -9 21
-25 19 -17 -2 5 -14 1 -13 -14 4 -13 15 -23 19 -30 12 -7 -7 -14 -5 -22 5 -10
12 -18 13 -32 5 -15 -8 -21 -6 -26 6 -5 13 -7 14 -14 3 -7 -10 -9 -10 -9 0 0
6 -7 12 -16 12 -9 0 -13 -5 -9 -12 4 -7 -1 -4 -9 6 -11 14 -16 15 -16 6 0 -9
-5 -8 -16 6 -8 10 -13 13 -9 7 4 -8 0 -13 -10 -13 -11 0 -15 5 -11 16 4 10 2
13 -6 8 -21 -13 -59 -10 -68 6 -8 13 -9 13 -10 0 -1 -13 -2 -13 -13 0 -7 8
-25 16 -42 17 -21 2 -26 0 -15 -7 8 -5 18 -6 24 -3 5 3 6 1 2 -5 -5 -8 -13 -9
-25 -2 -10 5 -22 6 -26 2 -5 -4 -5 -1 0 7 6 11 3 13 -13 9 -12 -4 -22 -1 -22
4 0 6 -8 4 -17 -3 -14 -12 -15 -12 -9 -1 7 12 4 12 -14 2 -13 -7 -25 -8 -29
-3 -7 11 -61 11 -78 0 -8 -5 -13 -4 -13 3 0 8 -6 8 -20 0 -14 -8 -20 -8 -20 0
0 8 -6 8 -20 0 -16 -9 -22 -8 -26 5 -3 8 -10 12 -15 9 -5 -3 -9 4 -9 15 0 12
-5 21 -11 21 -6 0 -9 9 -6 20 4 14 0 20 -11 20 -15 0 -15 2 -2 10 12 8 12 10
-5 10 -17 0 -17 2 -5 10 13 9 13 10 0 10 -8 0 -24 11 -34 25 -10 14 -23 25
-29 25 -5 0 -16 8 -24 18 -8 9 -12 11 -8 5 10 -20 -2 -15 -26 10 -12 12 -18
16 -14 8 6 -11 4 -13 -8 -8 -10 3 -17 3 -17 -2 0 -4 -10 -7 -22 -5 -13 1 -27
3 -31 3 -5 1 -6 5 -3 9 3 5 -1 9 -9 9 -8 0 -12 -3 -10 -7 2 -4 -2 -7 -10 -7
-8 0 -12 4 -9 9 3 4 -3 8 -13 8 -11 0 -25 6 -32 13 -11 10 -14 9 -18 -1 -4
-10 -8 -10 -21 0 -12 10 -14 10 -8 1 4 -7 2 -13 -3 -13 -6 0 -11 8 -11 18 -1
16 -1 16 -11 -1 -10 -18 -12 -18 -36 4 -18 18 -22 19 -17 6 7 -19 -6 -23 -23
-6 -8 8 -13 7 -18 -2 -6 -8 -4 -10 5 -4 9 5 11 4 6 -3 -4 -7 -15 -12 -24 -12
-15 -1 -15 -2 2 -15 11 -8 14 -15 7 -15 -7 0 -10 -4 -7 -8 2 -4 -11 -7 -30 -7
-25 1 -31 -1 -24 -10 8 -9 3 -12 -16 -9 -14 1 -31 10 -38 20 -11 14 -18 15
-45 6 -17 -6 -29 -7 -26 -2 3 5 0 12 -6 16 -7 4 -9 3 -6 -2 3 -6 2 -16 -4 -24
-7 -13 -9 -13 -9 0 0 13 -1 13 -10 0 -9 -13 -11 -13 -20 0 -9 13 -11 13 -20 0
-5 -8 -10 -10 -10 -4 0 5 6 16 13 23 10 10 7 10 -16 2 -16 -6 -26 -8 -24 -3 3
4 -1 13 -9 20 -11 10 -14 10 -14 0 0 -10 -2 -10 -9 0 -6 11 -10 10 -15 -5 -7
-17 -8 -17 -22 1 -10 14 -14 16 -14 5 0 -9 -3 -10 -8 -3 -4 6 -19 10 -34 10
-16 -1 -28 3 -28 9 0 5 -5 3 -10 -5 -5 -8 -10 -10 -10 -5 0 6 -20 10 -44 10
-24 0 -42 -3 -39 -7 2 -5 -1 -8 -6 -8 -6 0 -11 6 -12 13 0 9 -2 9 -6 0 -3 -9
-10 -10 -24 -3 -13 7 -19 7 -19 0 0 -5 -5 -10 -11 -10 -5 0 -7 6 -4 13 4 6 1
5 -7 -3 -19 -22 -38 -23 -31 -2 5 14 3 13 -10 -3 -13 -15 -17 -17 -17 -5 -1
10 -4 9 -10 -5 -5 -12 -9 -14 -9 -6 -1 11 -5 10 -17 -5 -8 -10 -13 -14 -10 -8
3 7 -3 14 -13 17 -14 3 -18 1 -14 -10 6 -16 -17 -14 -29 2 -4 6 -8 2 -8 -8 0
-11 -5 -15 -11 -11 -6 3 -15 0 -20 -7 -7 -12 -9 -11 -9 1 0 13 -1 13 -10 0 -9
-13 -10 -13 -10 0 0 10 -7 7 -21 -10 -11 -14 -18 -20 -15 -14 3 7 -1 15 -10
18 -8 3 -12 2 -9 -3 3 -5 1 -12 -5 -16 -5 -3 -10 0 -10 7 0 8 -5 6 -11 -4 -11
-20 -34 -25 -24 -5 4 6 -3 1 -14 -13 -18 -21 -20 -22 -15 -5 5 18 4 18 -8 4
-7 -9 -19 -14 -27 -11 -10 3 -11 0 -5 -9 6 -12 5 -12 -8 -1 -11 9 -18 10 -23
2 -3 -5 -18 -7 -33 -4 -21 4 -24 3 -12 -5 12 -9 11 -11 -8 -11 -13 0 -20 -4
-17 -10 3 -5 1 -10 -5 -10 -6 0 -8 -5 -4 -12 5 -8 0 -7 -11 2 -11 9 -16 10
-11 3 4 -8 2 -13 -6 -13 -9 0 -9 -3 2 -10 10 -6 11 -10 3 -10 -7 0 -13 -7 -13
-16 0 -9 -5 -12 -12 -8 -8 5 -7 0 2 -11 14 -17 13 -18 -3 -12 -10 4 -16 3 -13
-2 3 -5 -1 -14 -9 -21 -12 -10 -20 -9 -41 5 -15 9 -23 12 -20 6 4 -6 1 -11 -8
-11 -8 0 -17 4 -20 9 -7 10 -25 9 -43 -2 -6 -4 -14 -1 -16 5 -4 10 -8 9 -16
-2 -10 -13 -12 -13 -21 0 -9 13 -10 13 -11 0 0 -10 -2 -11 -6 -2 -2 6 -9 12
-14 12 -6 0 -7 -5 -3 -11 4 -7 -1 -7 -16 1 -15 8 -20 8 -16 1 4 -6 2 -11 -3
-11 -6 0 -11 5 -11 10 0 6 -5 10 -11 10 -5 0 -7 -5 -3 -11 4 -7 -1 -7 -16 1
-15 8 -20 8 -16 1 4 -6 2 -11 -3 -11 -6 0 -11 6 -12 13 0 6 -4 3 -9 -8 -5 -11
-9 -14 -9 -7 -1 10 -6 9 -18 -4 -12 -12 -18 -13 -21 -4 -3 9 -6 9 -13 -1 -6
-10 -9 -11 -9 -1 0 6 -5 12 -11 12 -6 0 -9 -6 -6 -14 5 -11 0 -13 -23 -6 -16
4 -31 6 -34 2 -3 -3 -6 -1 -6 4 0 6 -7 19 -15 30 -15 19 -15 19 -9 -1 4 -14 1
-13 -9 5 -9 14 -18 24 -21 23 -14 -7 -27 -2 -21 7 3 6 -1 10 -9 10 -9 0 -16 7
-16 15 0 9 -6 12 -17 8 -11 -4 -14 -3 -9 5 5 8 0 12 -13 12 -12 0 -21 4 -21
10 0 5 -7 7 -15 4 -11 -5 -13 -2 -8 12 5 13 3 15 -7 9 -10 -6 -12 -2 -8 19 4
21 3 24 -8 15 -11 -9 -14 -8 -14 1 0 8 -8 10 -21 7 -15 -4 -18 -2 -10 7 7 8 5
12 -9 12 -10 0 -16 -5 -13 -11 3 -5 0 -4 -8 3 -7 6 -17 12 -22 12 -4 0 -5 -6
-1 -12 4 -7 -5 -2 -21 12 -16 14 -25 19 -21 13 4 -7 2 -13 -3 -13 -6 0 -11 6
-11 13 0 8 -4 7 -10 -3 -6 -10 -10 -11 -10 -2 0 6 -5 12 -11 12 -5 0 -7 -5 -3
-12 4 -7 -6 -2 -23 10 -23 16 -33 18 -41 10 -9 -9 -12 -9 -12 0 0 9 -5 10 -19
2 -25 -13 -34 -13 -25 1 4 8 -1 9 -16 4 -15 -5 -20 -3 -16 3 3 6 1 14 -5 18
-7 4 -9 3 -6 -3 4 -6 0 -13 -8 -17 -8 -3 -15 0 -15 7 0 8 -4 6 -10 -3 -7 -11
-10 -12 -10 -2 0 10 -9 12 -32 7 -25 -5 -29 -4 -18 4 8 6 10 11 5 11 -6 0 -16
-5 -23 -12 -9 -9 -12 -9 -12 1 0 11 -3 11 -15 1 -9 -7 -18 -10 -22 -6 -3 3 0
6 7 6 7 0 10 3 7 6 -4 4 -13 1 -22 -6 -12 -10 -15 -10 -15 0 0 9 -4 9 -17 -1
-11 -10 -14 -10 -9 -1 4 6 2 12 -3 12 -6 0 -11 -5 -11 -11 0 -8 -4 -8 -12 -2
-16 12 -68 11 -87 -1 -10 -6 -12 -5 -7 2 4 7 2 12 -3 12 -6 0 -11 -5 -11 -11
0 -8 -5 -7 -15 1 -9 7 -18 10 -22 6 -3 -3 0 -7 8 -7 8 -1 1 -4 -16 -8 -21 -5
-34 -2 -43 9 -12 13 -13 13 -8 -5 6 -20 6 -20 -9 -1 -8 11 -15 14 -15 7 0 -7
-4 -10 -10 -6 -5 3 -7 12 -3 20 4 11 1 13 -11 9 -12 -5 -16 0 -16 19 0 14 -6
28 -12 31 -10 5 -10 7 0 12 10 4 10 9 2 20 -14 16 -4 37 13 28 7 -3 3 2 -8 12
-16 13 -17 16 -3 11 10 -3 20 -2 23 3 4 6 1 10 -5 10 -6 0 -8 5 -5 10 4 6 11
7 17 4 7 -5 8 -2 2 7 -11 17 -12 89 -2 89 5 0 7 4 5 9 -1 5 6 16 16 23 11 8
20 26 20 40 1 14 5 24 10 21 4 -2 7 1 7 6 0 6 -6 11 -12 11 -9 0 -8 4 2 10 10
6 11 10 3 10 -7 0 -13 5 -13 11 0 5 5 7 10 4 6 -3 10 -2 10 2 0 5 7 18 16 29
8 10 12 13 8 5 -4 -9 -2 -12 7 -9 8 3 13 10 12 15 -1 6 9 8 22 5 17 -3 25 0
26 9 0 8 4 5 9 -6 7 -17 9 -17 9 -2 1 9 7 17 15 17 7 0 20 8 27 18 13 16 13
16 -6 2 -18 -14 -19 -14 -7 1 12 17 66 33 57 18 -3 -4 0 -11 6 -15 6 -3 15 0
20 7 7 12 9 12 9 0 0 -11 4 -10 16 5 8 10 13 14 10 8 -3 -7 1 -18 10 -25 12
-10 15 -10 12 1 -2 7 3 15 11 18 10 3 11 0 5 -9 -6 -12 -5 -12 8 -1 13 10 17
10 22 0 5 -10 7 -10 12 1 5 11 8 11 15 0 7 -12 9 -12 9 0 0 11 3 11 17 0 11
-10 14 -10 9 -1 -4 6 -3 12 3 12 5 0 12 -6 14 -12 4 -10 8 -9 16 2 10 13 12
13 21 0 9 -13 11 -13 20 0 9 13 10 13 10 0 0 -13 1 -13 10 0 8 13 11 12 25 -5
8 -11 14 -14 13 -6 -2 7 3 16 11 19 10 3 11 0 5 -9 -6 -12 -5 -12 8 -1 13 10
17 10 22 0 5 -10 7 -10 12 0 3 6 10 12 15 12 6 0 7 -4 4 -10 -3 -6 1 -7 10 -4
9 4 14 12 12 18 -3 8 5 11 24 10 16 -1 31 2 34 7 3 4 24 6 47 3 30 -5 39 -3
33 6 -6 9 -2 9 15 0 20 -11 22 -10 17 3 -7 19 6 24 60 23 27 -1 38 2 33 9 -6
7 -2 11 10 11 10 0 16 -5 12 -11 -3 -5 1 -4 10 3 10 8 19 9 22 3 3 -5 15 -7
26 -4 11 3 18 8 16 12 -3 4 7 6 22 5 25 -1 72 11 102 26 18 10 31 8 46 -5z
m-3306 -25 c0 -5 -2 -10 -4 -10 -3 0 -8 5 -11 10 -3 6 -1 10 4 10 6 0 11 -4
11 -10z m264 -96 c3 -8 2 -12 -4 -9 -6 3 -10 10 -10 16 0 14 7 11 14 -7z
m8561 -274 c3 -6 -1 -7 -9 -4 -18 7 -21 14 -7 14 6 0 13 -4 16 -10z m-2425
-204 c0 -20 -12 -27 -26 -15 -7 6 -10 17 -8 24 7 16 34 8 34 -9z m-5488 -50
c7 4 8 2 4 -5 -9 -14 -36 3 -36 23 0 6 5 3 11 -7 6 -9 15 -14 21 -11z m8258
-146 c0 -5 -2 -10 -4 -10 -3 0 -8 5 -11 10 -3 6 -1 10 4 10 6 0 11 -4 11 -10z
m-3721 -150 c4 0 12 5 19 12 9 9 12 9 12 0 0 -7 5 -12 11 -12 5 0 8 4 5 8 -3
5 1 9 9 9 8 0 12 -3 10 -7 -5 -9 38 -6 53 3 6 5 12 4 12 -1 0 -6 7 -12 14 -15
11 -4 13 -1 10 11 -3 10 6 4 22 -13 15 -16 25 -23 22 -14 -4 9 -1 16 8 16 7 0
11 -4 8 -9 -3 -4 4 -8 15 -8 12 0 21 -4 21 -10 0 -5 5 -10 11 -10 5 0 7 5 3
11 -3 6 8 3 26 -6 18 -9 29 -12 26 -6 -9 13 4 14 24 1 9 -6 17 -5 22 3 5 8 8
7 8 -5 0 -9 5 -20 12 -24 6 -4 8 -3 4 4 -3 6 -2 13 4 17 5 3 10 1 10 -6 0 -7
3 -10 6 -6 3 3 18 1 32 -4 23 -9 24 -8 11 8 -13 17 -13 17 7 1 22 -20 39 -24
29 -8 -3 6 1 7 9 4 9 -3 16 -11 16 -18 0 -6 5 -4 10 4 6 10 10 11 10 3 0 -7 5
-13 11 -13 5 0 7 6 3 13 -6 9 -4 9 7 1 8 -6 23 -14 33 -18 14 -5 17 -3 10 7
-5 7 -1 4 9 -6 9 -11 17 -14 17 -8 0 6 5 11 11 11 5 0 7 -6 3 -12 -5 -8 0 -7
11 2 11 9 16 10 11 3 -5 -9 2 -13 26 -14 18 -1 39 -1 47 0 7 2 11 -1 8 -6 -3
-5 15 -9 40 -9 24 -1 50 -7 56 -14 9 -10 9 -11 -3 -6 -11 6 -11 4 1 -6 16 -13
34 -112 18 -103 -10 7 -5 -22 6 -32 4 -4 5 -2 0 6 -5 9 -4 12 2 8 6 -4 13 -16
16 -27 3 -11 1 -18 -4 -14 -13 8 -11 -8 4 -31 15 -23 15 -34 3 -54 -6 -10 -5
-12 2 -7 8 5 12 -4 12 -26 0 -19 6 -40 13 -47 10 -11 9 -13 -5 -8 -25 9 -22 2
9 -27 21 -19 24 -26 12 -31 -10 -4 -13 -18 -11 -50 3 -28 8 -43 15 -38 6 4 7
1 3 -6 -5 -7 -15 -10 -23 -6 -13 4 -14 3 -3 -10 10 -12 10 -15 -4 -15 -9 0
-15 -3 -15 -7 3 -20 -2 -24 -16 -13 -13 11 -14 10 -9 -4 4 -10 1 -16 -8 -16
-8 0 -15 -7 -15 -15 0 -11 4 -12 14 -3 11 8 12 7 7 -6 -3 -9 -10 -16 -14 -16
-4 0 -11 -7 -14 -16 -5 -12 -3 -14 7 -8 7 5 4 0 -8 -10 -14 -13 -16 -20 -7
-23 6 -3 12 -9 12 -14 0 -6 -4 -7 -10 -4 -9 5 -16 -32 -11 -59 1 -4 -4 -15
-11 -24 -11 -14 -10 -15 6 -8 15 5 13 1 -7 -18 -26 -24 -37 -43 -18 -32 5 4 4
-5 -2 -18 -7 -13 -15 -22 -19 -20 -5 3 -8 -2 -8 -10 0 -9 -6 -16 -14 -16 -8 0
-18 -5 -22 -12 -5 -8 -2 -9 11 -4 16 6 16 4 4 -10 -8 -10 -13 -27 -11 -38 2
-15 0 -17 -6 -8 -7 11 -10 9 -15 -7 -3 -12 -16 -25 -29 -30 -12 -6 -17 -10
-10 -10 7 -1 10 -6 7 -11 -4 -6 -11 -8 -16 -5 -5 3 -6 -1 -3 -9 3 -9 11 -13
18 -9 6 4 -1 -9 -16 -29 -21 -27 -24 -38 -15 -48 9 -10 9 -11 0 -6 -6 3 -15 2
-18 -4 -4 -6 -3 -10 2 -9 19 3 33 -2 33 -12 0 -5 -5 -7 -11 -3 -6 3 -4 -5 5
-19 21 -31 29 -70 14 -61 -7 5 -9 2 -5 -9 3 -9 2 -19 -3 -22 -6 -4 -10 -12 -9
-18 0 -9 2 -8 6 1 2 6 9 10 14 6 5 -3 -1 -14 -13 -25 -13 -12 -17 -18 -10 -14
6 3 12 2 12 -2 0 -5 -6 -15 -12 -22 -7 -8 -8 -11 -2 -8 6 3 11 -1 11 -9 0 -8
-6 -13 -12 -10 -17 6 -13 -37 5 -52 8 -8 9 -11 3 -7 -8 3 -13 0 -13 -8 0 -8 8
-18 17 -21 12 -5 14 -9 5 -18 -19 -19 -14 -32 6 -17 15 13 16 12 3 -3 -7 -10
-10 -25 -7 -34 5 -12 2 -15 -11 -10 -12 4 -10 0 5 -12 23 -17 23 -19 5 -33
-16 -13 -17 -13 -4 4 7 9 9 17 3 17 -14 0 -23 -28 -10 -36 7 -4 6 -9 -3 -15
-12 -8 -12 -10 0 -18 11 -7 9 -10 -8 -16 -11 -3 -21 -11 -21 -18 0 -8 3 -8 12
1 7 7 17 12 23 12 5 0 -4 -9 -21 -20 -16 -11 -36 -35 -44 -55 -14 -35 -34 -50
-24 -17 5 16 5 16 -6 -1 -6 -9 -16 -14 -22 -11 -6 4 -8 3 -5 -3 4 -6 1 -13 -6
-16 -9 -3 -12 -16 -9 -37 3 -22 1 -31 -6 -26 -10 6 -7 -37 3 -55 3 -4 -2 -12
-10 -19 -7 -6 -11 -19 -8 -28 6 -15 5 -16 -12 -2 -17 14 -17 13 1 -15 10 -16
14 -26 9 -23 -6 4 -12 -3 -12 -15 -2 -15 0 -18 6 -9 6 10 10 9 14 -7 3 -11 2
-20 -2 -19 -31 4 -40 -4 -37 -31 2 -22 0 -28 -11 -24 -9 4 -11 0 -6 -13 5 -13
3 -16 -10 -11 -11 4 -14 2 -11 -7 3 -7 -3 -16 -13 -20 -15 -6 -15 -8 -3 -16
13 -8 12 -10 -2 -10 -10 0 -18 -5 -18 -11 0 -5 6 -7 13 -3 8 5 8 3 -2 -9 -7
-9 -17 -14 -22 -11 -5 3 -6 -1 -3 -9 3 -8 0 -18 -7 -23 -8 -5 -10 -3 -4 6 5 9
4 11 -3 6 -7 -4 -12 -14 -12 -22 0 -9 -5 -12 -12 -8 -8 5 -9 2 -5 -10 4 -9 3
-15 -2 -12 -8 6 -25 -30 -22 -47 1 -5 -3 -6 -8 -2 -6 3 -21 -1 -34 -10 -13 -8
-27 -12 -31 -8 -4 4 -4 0 -1 -9 5 -11 0 -15 -17 -14 -18 1 -22 -3 -20 -21 2
-13 -2 -23 -8 -23 -7 0 -9 -7 -6 -15 3 -9 -1 -18 -9 -21 -8 -4 -15 -10 -15
-16 0 -5 5 -6 12 -2 7 5 8 3 3 -5 -4 -7 -16 -10 -27 -8 -16 5 -17 3 -7 -9 10
-12 2 -14 -52 -13 -35 1 -72 6 -81 11 -13 6 -18 5 -19 -4 0 -7 -4 -4 -9 7 -5
11 -9 14 -9 7 -1 -7 -11 -16 -23 -21 -17 -6 -25 -4 -30 8 -6 14 -7 14 -7 -1
-1 -10 -9 -18 -18 -18 -15 0 -16 -2 -3 -10 13 -9 7 -14 -12 -11 -8 1 -12 -15
-9 -33 1 -5 -5 -6 -14 -3 -9 4 -15 1 -15 -9 0 -9 5 -12 12 -8 6 4 8 3 4 -4 -3
-6 -15 -9 -26 -7 -11 2 -20 -1 -20 -7 0 -6 -8 -17 -17 -25 -17 -14 -17 -14 2
-9 19 6 19 5 3 -8 -10 -7 -18 -19 -18 -26 0 -7 -7 -10 -15 -6 -8 3 -14 2 -14
-2 1 -4 -2 -17 -6 -30 -5 -16 -11 -20 -19 -12 -9 7 -12 4 -12 -12 1 -17 -7
-23 -31 -29 -18 -3 -30 -2 -27 2 10 16 -9 9 -23 -8 -8 -10 -11 -12 -7 -4 5 10
3 12 -5 6 -10 -5 -10 -10 -1 -19 8 -8 4 -17 -17 -36 -16 -14 -24 -23 -18 -20
6 3 2 -3 -8 -13 -11 -9 -14 -17 -8 -17 7 0 10 -4 6 -10 -3 -5 -12 -7 -20 -3
-11 4 -13 1 -9 -11 4 -9 3 -16 -2 -15 -20 3 -35 -2 -30 -10 3 -5 -1 -14 -9
-21 -13 -11 -15 -10 -9 6 5 18 5 18 -9 2 -15 -19 -33 -25 -22 -9 3 5 1 12 -5
16 -5 3 -10 -1 -10 -10 0 -11 -5 -15 -14 -12 -10 4 -13 -1 -11 -18 1 -14 -1
-22 -5 -20 -4 3 -15 -4 -25 -15 -10 -12 -13 -20 -7 -20 7 0 12 5 12 10 0 6 6
10 13 10 6 -1 1 -10 -12 -20 -14 -12 -18 -20 -10 -20 11 0 11 -2 -1 -10 -9 -5
-19 -5 -27 2 -11 8 -12 7 -7 -7 6 -15 4 -16 -16 -5 -15 8 -20 8 -16 1 7 -11
-4 -15 -36 -12 -11 2 -18 -5 -18 -16 0 -15 -2 -16 -10 -3 -9 13 -10 13 -10 0
0 -13 -1 -13 -10 0 -8 12 -10 12 -10 -5 0 -17 -2 -17 -10 -5 -6 10 -10 11 -10
3 0 -7 -5 -13 -11 -13 -5 0 -7 6 -3 13 9 15 -26 -12 -42 -32 -9 -11 -13 -11
-19 -1 -6 10 -9 9 -16 -1 -7 -11 -9 -11 -9 -1 0 10 -5 10 -20 2 -11 -6 -20 -7
-20 -2 0 15 -38 7 -60 -13 -12 -11 -20 -13 -20 -6 0 7 -5 9 -10 6 -6 -4 -8
-10 -5 -15 3 -4 -3 -11 -12 -15 -10 -3 -19 -1 -21 5 -3 7 -9 7 -20 -2 -13 -11
-14 -11 -8 1 6 9 5 12 -5 9 -8 -3 -13 -12 -11 -19 1 -8 -4 -5 -13 5 -8 11 -15
14 -15 7 0 -9 -5 -7 -16 4 -11 11 -20 13 -28 5 -7 -5 -17 -6 -21 -2 -5 4 -5
-2 -1 -12 5 -16 4 -17 -9 -6 -12 10 -15 10 -15 0 0 -7 -7 -10 -16 -6 -12 5
-15 2 -10 -11 5 -16 5 -16 -8 0 -9 12 -24 18 -43 15 -20 -2 -27 1 -25 12 1 10
-3 9 -13 -4 -13 -18 -20 -15 -16 7 2 11 -14 8 -28 -5 -11 -11 -13 -10 -7 2 5
9 2 8 -7 -2 -15 -19 -33 -25 -22 -9 3 5 1 12 -5 16 -5 3 -10 1 -10 -4 0 -6 -7
-11 -15 -11 -8 0 -15 5 -15 10 0 6 -4 10 -10 10 -5 0 -7 -8 -4 -17 5 -16 4
-16 -6 0 -10 15 -14 16 -28 5 -12 -10 -14 -10 -8 0 5 8 1 12 -11 13 -10 0 -26
2 -35 4 -12 2 -15 -2 -10 -13 5 -15 4 -15 -11 -3 -14 11 -17 11 -17 0 0 -11
-2 -11 -9 1 -6 8 -7 18 -4 24 4 5 1 6 -6 2 -7 -5 -20 -1 -31 9 -19 18 -37 5
-24 -17 5 -8 1 -8 -12 2 -10 8 -16 10 -12 6 5 -5 -1 -16 -13 -24 -18 -12 -23
-12 -42 5 -19 15 -20 16 -8 1 9 -12 10 -18 2 -18 -6 0 -11 3 -12 8 0 4 -2 15
-4 25 -2 9 0 15 4 12 4 -2 8 2 8 10 0 8 -4 12 -9 9 -4 -3 -8 4 -8 15 0 12 -5
21 -11 21 -8 0 -8 5 1 15 12 14 7 20 -14 16 -5 -1 -6 5 -3 13 4 9 1 15 -6 13
-7 -1 -11 6 -11 15 1 10 -2 15 -8 12 -12 -7 -39 16 -32 27 3 5 0 9 -6 9 -6 0
-8 5 -5 10 3 6 1 10 -5 10 -6 0 -9 4 -5 9 3 5 1 12 -4 15 -5 4 -13 1 -17 -5
-5 -8 -3 -9 7 -4 8 5 10 4 6 0 -14 -15 -39 -15 -33 1 7 19 -4 18 -21 -3 -13
-16 -14 -16 -10 -2 4 13 1 15 -14 12 -10 -3 -19 -10 -19 -17 0 -6 -5 -4 -11 4
-8 12 -12 12 -16 2 -4 -10 -8 -10 -21 0 -13 11 -14 11 -7 -1 6 -11 3 -13 -14
-8 -17 4 -20 2 -12 -7 8 -9 7 -13 -4 -13 -8 0 -15 3 -15 7 0 14 -64 0 -73 -15
-4 -9 -14 -12 -20 -8 -9 5 -9 3 0 -8 10 -13 10 -16 -2 -16 -8 0 -15 4 -15 9 0
4 -5 8 -11 8 -5 0 -7 -6 -3 -12 6 -10 5 -10 -8 -1 -8 7 -18 10 -21 6 -4 -3
-34 -8 -68 -9 -33 -1 -66 -7 -73 -13 -9 -8 -13 -7 -13 4 0 8 5 11 10 8 6 -4 7
-1 2 6 -5 9 -11 9 -17 3 -14 -14 -38 -4 -38 17 0 9 -3 12 -8 6 -4 -5 -13 -11
-21 -13 -11 -2 -12 0 -4 10 9 10 4 13 -23 14 -22 1 -31 -2 -27 -10 4 -6 1 -6
-9 1 -8 7 -19 9 -24 5 -4 -4 -2 2 6 12 12 16 12 18 1 11 -9 -5 -19 -2 -29 11
-12 16 -14 16 -9 2 3 -10 1 -20 -5 -24 -7 -4 -8 -3 -4 4 4 6 -4 16 -16 23 -25
13 -26 13 -47 -4 -19 -16 -43 -18 -38 -3 3 8 -5 11 -24 10 -16 -1 -29 3 -29 8
0 6 -8 4 -17 -3 -11 -10 -14 -10 -9 -1 4 7 1 12 -8 12 -9 0 -16 5 -16 11 0 5
-6 7 -12 3 -9 -5 -9 -2 1 9 11 14 11 17 0 18 -12 0 -12 1 0 6 10 4 10 7 2 13
-7 4 -13 16 -14 27 -1 14 -7 19 -24 17 -13 -1 -23 2 -23 7 0 4 -8 5 -17 2 -16
-6 -17 -5 -3 12 9 11 10 16 3 11 -8 -4 -13 -2 -13 5 0 7 -3 10 -6 7 -3 -3 -16
5 -30 19 -14 14 -29 21 -37 17 -6 -4 -9 -4 -5 1 4 4 -5 20 -21 36 -22 21 -26
30 -17 40 8 9 8 10 -1 5 -7 -4 -23 3 -35 15 -13 12 -17 18 -10 14 11 -6 12 -3
3 14 -7 11 -14 21 -17 21 -3 0 -2 -6 2 -12 4 -7 -4 -2 -17 12 -13 13 -24 27
-24 30 -2 18 -31 47 -43 42 -10 -3 -13 -1 -8 6 4 7 2 12 -4 12 -6 0 -9 4 -6 9
3 4 -1 17 -8 27 -8 10 -11 23 -6 29 4 6 2 16 -6 23 -10 10 -14 10 -14 1 0 -7
-3 -9 -6 -6 -4 4 -1 13 6 22 9 11 9 15 1 15 -7 0 -9 5 -6 10 3 6 -1 13 -10 16
-13 6 -14 8 -3 15 9 6 10 9 1 9 -7 0 -10 6 -7 14 3 7 -2 16 -10 19 -9 4 -16
11 -16 17 0 6 5 8 12 4 7 -4 8 -3 4 4 -4 7 -15 12 -24 13 -14 0 -13 2 3 9 16
7 17 9 3 9 -21 1 -27 19 -17 54 5 19 4 25 -3 21 -7 -5 -9 -1 -5 9 3 10 2 17
-3 17 -6 0 -10 5 -10 11 0 5 6 7 13 3 8 -6 8 -3 -1 9 -8 9 -11 21 -7 27 3 5 1
10 -5 10 -7 0 -9 7 -6 16 5 12 2 15 -11 10 -17 -6 -17 -5 0 8 15 11 15 15 3
19 -8 3 -17 1 -20 -6 -3 -7 -3 -2 0 11 3 12 1 22 -5 22 -6 0 -7 7 -4 17 4 11
3 14 -5 9 -7 -4 -12 -3 -12 3 0 5 5 11 11 13 5 2 7 11 4 20 -4 11 -13 14 -23
10 -15 -5 -15 -4 1 12 20 20 22 27 6 23 -6 -1 -13 13 -15 31 -2 18 -10 43 -18
55 -8 12 -12 34 -11 50 2 15 0 25 -5 22 -4 -3 -11 2 -14 11 -3 8 -2 12 4 9 16
-10 12 11 -5 25 -11 9 -12 16 -5 25 8 9 6 14 -6 19 -13 5 -14 9 -5 20 9 11 9
16 0 22 -8 5 -9 3 -4 -6 5 -9 4 -11 -4 -6 -9 6 -9 11 0 22 9 11 8 14 -2 14
-11 0 -11 2 1 10 11 7 12 10 2 10 -9 0 -11 7 -7 20 5 16 3 19 -11 13 -14 -5
-15 -3 -5 15 11 20 8 26 -10 24 -3 -1 -4 10 -1 23 2 13 -3 33 -11 45 -10 14
-12 32 -7 58 8 44 3 65 -13 55 -7 -4 -5 2 3 12 14 17 13 18 -4 11 -20 -7 -20
-7 0 15 10 12 14 20 9 16 -6 -3 -17 -2 -25 4 -12 7 -12 9 3 9 10 0 15 5 12 10
-3 6 -7 30 -8 55 -1 32 2 46 13 49 8 2 4 5 -10 6 -23 1 -23 2 -5 10 12 5 14 9
6 9 -11 1 -10 5 5 15 18 14 18 15 -6 25 -18 7 -20 10 -7 10 15 1 16 4 6 23
-10 18 -9 20 5 15 9 -4 16 -4 16 -1 0 2 -10 9 -22 14 -21 8 -21 9 -3 10 17 0
17 2 5 10 -13 9 -13 10 0 10 13 0 13 1 0 10 -13 9 -13 10 0 11 10 0 8 3 -5 9
-18 8 -18 9 -2 9 15 1 16 4 7 21 -6 11 -7 26 -3 33 12 19 12 36 1 44 -7 4 -8
1 -3 -7 5 -9 4 -11 -4 -6 -15 10 -5 26 17 26 13 0 13 2 -4 15 -14 11 -16 15
-4 15 12 0 10 4 -4 15 -17 13 -17 15 -4 15 22 0 32 16 17 26 -8 5 -9 3 -4 -7
5 -8 4 -10 0 -6 -12 11 -15 37 -4 37 5 0 9 5 9 11 0 5 -6 7 -12 3 -8 -4 -8 -2
1 7 11 11 14 11 18 1 4 -10 8 -10 21 0 9 8 13 8 9 2 -4 -7 0 -15 9 -18 8 -3
12 -2 9 4 -3 6 1 7 9 4 9 -3 14 -9 11 -13 -2 -4 2 -8 10 -8 8 0 12 4 9 9 -3 4
0 8 5 8 6 0 11 -5 11 -11 0 -6 5 -7 13 -2 17 11 38 13 32 3 -3 -4 9 -10 26
-12 24 -4 29 -2 24 11 -4 11 -1 10 15 -4 15 -14 20 -15 21 -4 0 8 4 6 9 -6 8
-19 9 -19 9 3 1 22 2 22 18 6 12 -12 18 -13 21 -4 3 9 6 9 13 -1 7 -11 9 -9 9
6 0 16 2 17 9 5 6 -8 7 -19 5 -25 -3 -5 0 -3 8 5 14 16 133 21 156 6 7 -4 12
-2 13 6 0 10 2 10 6 -1 4 -11 7 -11 14 0 4 7 19 14 33 15 14 0 23 -2 21 -6 -2
-4 6 -6 17 -5 12 1 24 7 26 13 3 9 9 9 24 1 18 -10 20 -9 14 6 -5 15 -4 16 8
6 11 -9 16 -9 21 0 6 8 10 7 16 -2 6 -10 9 -11 9 -1 0 6 5 12 11 12 5 0 7 -4
4 -10 -3 -6 1 -7 9 -4 9 3 13 11 9 17 -4 6 -1 7 7 2 7 -4 16 -2 21 6 7 12 9
11 9 -1 0 -13 1 -13 10 0 9 13 10 13 11 0 0 -10 3 -8 9 5 7 17 9 17 9 3 1 -11
6 -15 16 -12 8 4 13 10 10 15 -7 11 26 28 44 21 9 -3 11 0 6 8 -6 10 -4 12 8
7 10 -4 16 -2 14 6 -1 7 6 11 15 11 10 -1 14 4 11 12 -5 13 8 19 31 15 5 -1 4
4 -3 13 -9 11 -9 16 0 22 8 5 9 3 4 -6 -6 -9 -4 -11 4 -6 7 5 10 14 7 22 -3 8
0 11 10 7 10 -4 12 0 7 13 -5 13 -3 15 8 9 11 -7 11 -5 -1 10 -8 10 -10 16 -5
13 6 -4 17 2 24 14 10 16 10 19 -1 13 -7 -5 -3 2 10 14 23 22 30 37 12 26 -6
-3 -10 -2 -10 3 0 6 7 13 15 16 13 5 14 10 4 28 -11 21 -11 22 4 10 14 -12 16
-11 12 7 -2 12 1 21 6 21 6 0 7 4 4 10 -3 5 2 22 12 37 10 15 13 24 6 20 -7
-4 -10 -1 -9 9 1 8 9 20 17 25 11 7 11 9 1 9 -7 0 -10 5 -7 11 4 6 13 8 20 5
9 -3 11 2 7 16 -3 12 -1 19 4 16 5 -4 10 6 11 20 0 15 -4 30 -10 34 -8 5 -5 8
7 8 15 0 16 3 6 15 -11 13 -10 14 6 8 17 -6 17 -5 5 10 -10 13 -10 17 -1 17
10 0 10 3 0 15 -11 13 -10 14 2 10 9 -4 15 0 15 10 0 8 -3 15 -7 15 -14 0 0
63 17 76 23 17 33 17 33 2 0 -8 7 -5 15 6 8 11 15 16 15 12 0 -5 8 -2 17 5 14
12 16 12 8 0 -6 -11 -5 -12 6 -5 22 13 47 15 54 3 5 -7 11 -6 21 2 11 9 15 8
20 -5 6 -15 8 -15 20 2 11 16 25 18 106 17 51 -1 101 3 112 8 14 7 17 6 10 -5
-6 -11 -5 -11 9 1 14 11 17 11 17 0 0 -11 2 -11 8 -1 9 14 42 6 42 -10 0 -5
-4 -6 -10 -3 -6 3 -7 -1 -4 -9 3 -9 10 -14 14 -11 14 9 20 -10 8 -25 -8 -12
-8 -11 -3 5 5 16 4 18 -6 8 -9 -9 -10 -16 -2 -24 6 -6 8 -23 3 -45 -5 -19 -4
-34 1 -34 5 0 9 -5 9 -11 0 -5 -4 -7 -10 -4 -6 3 -7 -1 -4 -9 3 -9 11 -16 18
-16 6 0 4 -5 -4 -10 -13 -9 -13 -10 0 -10 13 0 13 -1 0 -10 -11 -7 -11 -10 -2
-10 7 0 10 -4 7 -10 -3 -5 -2 -10 3 -10 6 0 8 -10 4 -22 -4 -16 -2 -19 9 -13
12 7 12 6 1 -7 -10 -13 -10 -17 4 -22 13 -5 14 -9 5 -20 -9 -11 -8 -17 4 -29
8 -9 15 -20 15 -26 0 -6 5 -11 12 -11 6 0 8 -3 5 -6 -4 -4 -15 -1 -24 7 -17
13 -17 13 -3 -6 8 -11 19 -23 23 -26 5 -3 8 -9 8 -13 -3 -19 0 -27 8 -21 6 3
8 -4 6 -15 -2 -12 2 -23 9 -26 8 -3 13 -13 11 -22 -1 -9 7 -25 19 -35 11 -10
16 -16 9 -13 -7 4 -9 -1 -6 -14 3 -11 10 -20 15 -20 5 0 6 5 2 12 -4 7 -3 8 4
4 6 -4 9 -13 5 -21 -3 -8 0 -15 6 -15 6 0 11 -7 11 -16 0 -9 9 -18 20 -21 10
-3 22 -13 25 -23 8 -24 45 -34 46 -12 1 15 2 15 6 0 2 -10 9 -18 14 -18 6 0 8
4 5 8 -3 5 1 9 9 9 8 0 11 -5 8 -10 -4 -6 3 -8 15 -5 12 4 20 3 18 0 -2 -4 2
-12 9 -19 11 -10 15 -10 18 0 3 7 6 2 6 -10 1 -13 6 -23 12 -23 5 0 8 4 5 9
-4 5 3 7 14 4 14 -4 17 -9 11 -17 -11 -13 38 -14 59 -1 8 5 11 4 7 -2 -4 -6 0
-14 9 -17 12 -5 15 -2 10 11 -5 16 -4 16 6 3 12 -13 101 -23 93 -10 -2 3 19 5
46 6 27 0 49 -3 49 -8 0 -5 -5 -6 -12 -2 -7 5 -8 3 -3 -6 6 -10 13 -7 27 11
11 13 17 18 13 12 -7 -14 7 -18 19 -6 11 11 96 11 103 0 3 -5 10 -3 15 4 7 11
11 11 15 2 2 -7 9 -13 14 -13 6 0 7 6 3 13 -5 7 0 6 11 -3 15 -12 17 -12 10
-1 -6 11 -2 13 19 9 19 -4 26 -1 27 11 0 10 2 12 6 4 2 -7 14 -13 24 -13 13 0
18 4 13 12 -5 7 -3 8 7 2 8 -4 22 -10 33 -11 16 -3 17 -1 5 14 -12 15 -12 16
1 8 8 -6 22 -10 30 -10 8 0 20 -3 25 -7 6 -4 17 -3 25 3 21 13 32 11 24 -3 -6
-9 -3 -9 9 0 9 8 21 11 27 7 5 -3 10 2 11 12 0 16 1 16 9 -2 5 -11 9 -15 9 -9
1 7 8 15 17 18 8 3 12 2 9 -3 -7 -12 45 -3 61 10 19 15 56 20 48 6 -4 -7 2 -4
13 6 14 12 23 15 28 8 3 -6 12 -11 18 -10 9 0 8 2 -1 6 -6 2 -9 9 -6 14 3 6
12 5 22 -3 14 -11 15 -10 9 6 -6 16 -5 17 8 6 10 -8 15 -9 15 -2 0 7 7 9 17 5
12 -5 14 -3 8 8 -7 11 -5 11 10 -1 15 -12 17 -12 10 -1 -6 11 -4 13 8 8 10 -3
17 -2 17 4 0 6 5 7 10 4 6 -3 10 -1 10 6 0 8 5 7 13 -4 10 -14 15 -14 30 -2
10 7 17 17 15 22 -2 4 9 9 25 11 15 2 27 8 27 14 0 5 7 7 16 4 14 -5 15 -4 4
9 -11 13 -10 14 3 9 12 -4 15 0 13 21 -2 17 1 25 9 22 6 -3 12 1 12 9 0 8 -7
14 -16 14 -11 0 -9 4 7 16 17 12 20 19 12 34 -13 24 -13 33 1 24 8 -4 8 0 0
15 -7 11 -8 21 -4 21 4 0 1 5 -7 10 -13 9 -12 12 4 25 15 11 16 15 5 16 -10 0
-10 2 -1 6 6 2 10 9 6 14 -3 5 1 9 8 9 11 0 11 2 0 9 -7 4 -15 17 -17 27 -2
10 -4 19 -5 19 -8 0 -4 68 4 72 5 4 6 1 1 -7 -5 -8 -3 -11 5 -8 20 6 23 49 4
63 -14 9 -14 14 -4 20 9 6 11 4 5 -5 -5 -8 -4 -11 3 -6 16 10 10 46 -8 47 -10
0 -9 3 5 9 11 5 15 9 10 9 -6 1 -10 16 -10 34 0 29 3 33 23 29 16 -3 22 0 20
9 -2 8 3 13 10 12 6 -2 13 5 13 15 1 16 2 16 6 0 2 -10 8 -18 12 -18z m1554
-79 c-3 -11 -13 -21 -23 -24 -13 -3 -16 0 -13 14 3 10 12 20 22 22 9 3 17 5
18 6 0 0 -1 -8 -4 -18z m2387 -51 c0 -5 -7 -7 -15 -4 -8 4 -15 8 -15 10 0 2 7
4 15 4 8 0 15 -4 15 -10z m33 -75 c-7 -21 -12 -19 -10 4 0 11 5 18 9 15 4 -3
5 -11 1 -19z m-2889 -30 c-9 -22 -34 -27 -34 -6 0 23 8 31 25 24 8 -2 11 -11
9 -18z m-1179 -84 c3 -5 2 -12 -3 -15 -5 -3 -9 1 -9 9 0 17 3 19 12 6z m-419
-393 c4 -7 4 -10 -1 -6 -4 4 -15 2 -24 -5 -14 -11 -14 -10 -2 6 16 20 18 21
27 5z m4064 -812 c0 -2 -8 -10 -17 -17 -16 -13 -17 -12 -4 4 13 16 21 21 21
13z m-105 -135 c3 -5 2 -12 -3 -15 -5 -3 -9 1 -9 9 0 17 3 19 12 6z m-7200
-280 c3 -5 2 -12 -3 -15 -5 -3 -9 1 -9 9 0 17 3 19 12 6z m6096 -38 c13 -16
12 -17 -3 -4 -10 7 -18 15 -18 17 0 8 8 3 21 -13z m-5981 -353 c0 -5 -2 -10
-4 -10 -3 0 -8 5 -11 10 -3 6 -1 10 4 10 6 0 11 -4 11 -10z m2670 -930 c0 -5
-5 -10 -11 -10 -5 0 -7 5 -4 10 3 6 8 10 11 10 2 0 4 -4 4 -10z m-1895 -310
c-3 -5 -12 -10 -18 -10 -7 0 -6 4 3 10 19 12 23 12 15 0z m2232 -445 c0 -8 -4
-12 -9 -9 -5 3 -6 10 -3 15 9 13 12 11 12 -6z"/>
<path d="M5336 8818 c3 -5 10 -6 15 -3 13 9 11 12 -6 12 -8 0 -12 -4 -9 -9z"/>
<path d="M3893 8415 c0 -8 4 -12 9 -9 5 3 6 10 3 15 -9 13 -12 11 -12 -6z"/>
<path d="M6056 7098 c3 -5 10 -6 15 -3 13 9 11 12 -6 12 -8 0 -12 -4 -9 -9z"/>
<path d="M7910 6779 c0 -5 5 -7 10 -4 6 3 10 8 10 11 0 2 -4 4 -10 4 -5 0 -10
-5 -10 -11z"/>
<path d="M3736 6402 c-2 -4 -1 -14 4 -22 7 -11 9 -9 7 8 -1 24 -3 26 -11 14z"/>
<path d="M5201 6384 c9 -11 7 -14 -10 -14 -12 0 -19 -4 -16 -10 3 -5 1 -11 -4
-11 -6 -1 -15 -2 -19 -3 -16 -2 -41 -34 -34 -42 4 -5 -2 -2 -12 6 -13 10 -17
10 -12 3 4 -7 3 -13 -3 -13 -6 0 -8 -7 -5 -15 4 -8 2 -15 -4 -15 -5 0 -12 -9
-15 -21 -3 -12 -10 -18 -16 -14 -6 3 -11 1 -11 -5 0 -6 -5 -8 -12 -4 -8 5 -8
1 2 -12 8 -10 10 -16 5 -11 -4 4 -19 0 -32 -8 -13 -9 -23 -13 -23 -10 0 3 -9
1 -20 -5 -15 -8 -20 -8 -20 1 0 6 -7 9 -15 5 -9 -3 -15 0 -15 10 0 8 -4 12
-10 9 -5 -3 -10 -1 -10 4 0 6 -6 10 -12 9 -7 -2 -12 3 -10 10 1 8 -2 11 -8 7
-5 -3 -10 -1 -10 6 0 8 -4 8 -15 -1 -12 -10 -15 -10 -15 1 0 11 -2 11 -10 -1
-8 -13 -10 -13 -10 -1 0 11 -4 9 -15 -5 -15 -19 -15 -19 -8 1 6 18 5 18 -10 6
-9 -7 -26 -11 -37 -8 -13 3 -18 1 -13 -6 4 -7 0 -8 -11 -4 -9 4 -15 3 -12 -1
3 -4 -4 -14 -16 -21 -11 -7 -17 -8 -13 -2 3 6 1 11 -4 11 -6 0 -11 -5 -11 -12
0 -6 -3 -8 -7 -5 -3 4 -12 -1 -20 -11 -8 -9 -12 -12 -9 -6 3 6 -1 11 -8 11 -8
0 -12 -7 -8 -15 3 -9 1 -13 -5 -9 -5 3 -17 -3 -26 -14 -19 -21 -37 -25 -37 -8
0 8 -4 8 -15 -1 -8 -6 -19 -9 -24 -6 -5 4 -16 -2 -23 -12 -16 -22 -52 -38 -43
-19 4 6 0 4 -8 -5 -8 -10 -20 -18 -27 -18 -10 0 -9 -4 1 -17 10 -11 10 -14 2
-9 -8 4 -13 2 -13 -4 0 -6 -4 -8 -10 -5 -9 6 -15 -8 -11 -29 1 -5 -5 -4 -13 3
-12 10 -14 8 -12 -14 2 -14 -1 -28 -7 -32 -6 -4 -7 -1 -2 7 5 9 4 11 -3 6 -7
-4 -12 -14 -12 -23 0 -9 -6 -13 -15 -9 -13 5 -14 2 -4 -15 7 -13 7 -19 1 -15
-6 3 -13 2 -17 -4 -3 -5 -1 -10 6 -10 6 0 1 -9 -12 -20 -13 -10 -20 -19 -15
-20 5 0 3 -6 -3 -14 -9 -11 -6 -17 14 -30 14 -9 25 -12 25 -6 0 5 -4 10 -10
10 -5 0 -10 5 -10 12 0 6 10 2 23 -10 13 -12 27 -19 31 -15 4 5 7 3 6 -2 -5
-23 1 -46 10 -40 6 3 10 -1 10 -11 0 -12 6 -15 25 -12 13 3 22 1 19 -3 -3 -5
0 -9 5 -9 6 0 11 8 11 17 0 15 1 15 13 -2 11 -14 16 -15 22 -5 6 9 4 11 -5 5
-9 -5 -11 -4 -6 4 5 8 12 9 20 2 14 -12 41 2 32 17 -4 7 1 9 14 7 11 -2 20 2
21 8 0 7 4 3 9 -8 7 -16 9 -17 9 -3 1 9 5 20 11 23 6 3 7 -1 4 -9 -8 -20 0
-20 20 0 9 8 16 11 16 5 0 -6 5 -11 11 -11 5 0 8 4 5 9 -7 10 20 9 30 -2 12
-12 26 -8 19 6 -4 6 -1 5 7 -3 15 -17 62 -15 52 2 -4 7 -2 8 5 4 8 -6 9 -12 2
-20 -8 -9 -6 -12 7 -11 9 0 23 4 30 9 6 4 12 2 12 -3 0 -6 5 -11 11 -11 5 0 8
4 5 8 -2 4 6 8 20 8 15 0 24 -6 25 -15 0 -11 2 -12 6 -3 6 15 33 16 33 1 0 -5
5 -7 10 -4 6 4 8 10 6 14 -3 4 1 8 9 8 8 0 12 -4 10 -8 -3 -4 2 -10 11 -13 10
-4 13 -2 9 7 -4 6 0 4 8 -5 8 -10 16 -15 19 -13 10 10 49 14 43 4 -7 -10 5
-13 54 -10 19 1 38 -4 42 -10 6 -10 11 -10 23 0 13 11 16 11 16 0 0 -12 2 -12
9 0 7 11 9 11 14 0 4 -9 8 -11 14 -4 10 13 23 13 42 1 10 -7 12 -6 6 3 -5 10
1 12 29 8 20 -3 33 -1 30 4 -3 5 -10 6 -16 3 -7 -4 -8 -2 -4 4 5 9 14 8 34 -2
23 -12 28 -12 40 3 7 9 11 10 7 4 -7 -14 7 -18 19 -6 11 12 65 10 59 -2 -3 -5
0 -4 8 3 7 6 17 12 22 12 4 0 5 -6 1 -12 -6 -10 -4 -10 8 0 13 10 17 10 21 0
4 -10 8 -10 16 2 9 13 11 13 11 1 0 -11 4 -10 16 5 8 10 13 14 10 8 -3 -7 1
-14 8 -17 8 -3 17 -1 20 6 5 9 7 9 12 0 3 -7 10 -13 15 -13 6 0 7 6 3 13 -6 9
-4 9 8 -1 13 -10 17 -10 21 0 4 10 6 9 6 -1 1 -11 5 -10 17 5 8 10 13 14 10 8
-3 -7 1 -18 10 -25 12 -10 15 -10 12 1 -2 7 3 15 11 18 10 3 11 0 5 -9 -6 -12
-5 -12 8 -1 13 10 17 10 21 0 4 -10 7 -10 15 1 8 11 10 11 15 0 4 -10 6 -10 6
-1 1 6 6 12 12 12 5 0 8 -4 4 -9 -3 -5 -1 -13 5 -16 6 -4 9 -1 8 6 -2 6 7 12
19 14 13 1 20 -3 16 -9 -3 -6 0 -5 8 2 7 6 17 12 22 12 4 0 5 -6 1 -12 -6 -10
-4 -10 8 0 13 10 17 10 21 0 4 -10 7 -10 15 1 8 11 10 11 15 0 4 -10 6 -10 6
-1 1 6 6 12 12 12 5 0 7 -5 3 -12 -5 -7 -3 -8 7 -2 20 12 40 14 33 3 -3 -5
-10 -7 -15 -4 -5 4 -9 4 -9 1 0 -3 10 -10 21 -17 17 -9 20 -8 14 2 -5 8 -4 10
3 5 7 -4 12 -14 12 -22 0 -8 4 -14 10 -14 5 0 6 8 3 17 -6 15 -5 16 9 3 8 -8
13 -22 11 -30 -4 -12 -3 -13 5 -1 5 7 14 11 20 7 6 -3 13 0 15 6 4 8 6 7 6 -3
1 -9 8 -20 17 -23 8 -3 12 -2 9 4 -3 6 -1 10 4 10 6 0 11 -4 11 -10 0 -5 7 -7
15 -4 8 4 23 0 32 -7 10 -8 14 -9 10 -2 -4 6 -2 15 4 19 7 4 9 3 6 -3 -7 -12
14 -33 35 -37 7 -1 19 -6 27 -10 10 -6 12 -5 7 2 -5 8 -2 10 8 6 9 -3 16 -9
16 -13 0 -4 7 -8 15 -8 10 0 12 4 5 12 -8 9 -3 11 17 8 21 -4 24 -2 13 6 -12
9 -12 11 3 16 13 6 15 11 6 27 -9 16 -8 19 2 13 9 -6 11 -3 6 8 -4 10 -1 17 6
17 8 0 7 4 -3 10 -12 7 -10 11 10 19 14 5 18 10 10 11 -13 0 -13 1 0 10 18 11
23 80 5 80 -6 0 -22 9 -35 20 -25 22 -35 26 -25 10 3 -5 1 -10 -4 -10 -6 0
-11 9 -11 20 0 11 -5 20 -11 20 -6 0 -9 8 -7 18 7 24 -40 81 -70 87 -13 2 -20
0 -17 -6 12 -18 -15 -9 -37 13 -19 19 -20 19 -14 3 6 -18 6 -18 -12 -2 -10 9
-22 14 -25 10 -4 -3 -7 -1 -7 6 0 7 -5 9 -12 5 -7 -5 -9 -2 -5 9 4 11 2 14 -8
10 -8 -3 -13 -8 -11 -12 3 -4 -5 -13 -17 -21 -21 -12 -21 -12 -7 5 14 17 14
17 -7 7 -16 -9 -23 -9 -26 1 -3 7 -6 4 -6 -6 -1 -10 -5 -15 -11 -12 -5 3 -10
-1 -10 -9 0 -8 -5 -18 -12 -22 -8 -5 -9 -1 -5 12 7 18 7 18 -8 0 -8 -11 -15
-14 -15 -7 0 7 -5 9 -10 6 -6 -4 -7 -11 -4 -17 4 -6 -2 -5 -15 1 -12 7 -26 9
-31 6 -6 -3 -10 -1 -10 6 0 10 -3 10 -12 1 -10 -10 -15 -7 -26 10 -8 15 -11
16 -8 5 4 -11 2 -16 -5 -11 -6 3 -8 15 -6 26 4 14 1 18 -8 14 -13 -5 -42 20
-38 33 1 3 -5 5 -13 3 -8 -2 -14 2 -14 8 0 6 -6 8 -12 4 -9 -5 -8 -2 1 10 13
15 12 18 -8 23 -16 4 -20 11 -16 24 5 15 3 17 -11 12 -11 -4 -15 -3 -10 5 3 6
2 13 -4 17 -6 4 -8 11 -5 16 4 5 1 9 -6 9 -7 0 -9 3 -6 7 4 3 -1 12 -11 20 -9
8 -11 12 -4 8 6 -3 12 -1 12 4 0 6 -5 11 -11 11 -8 0 -8 4 0 14 9 11 6 13 -13
11 -14 -2 -30 -6 -35 -10 -6 -3 -11 -2 -11 4 0 6 -6 8 -14 5 -7 -3 -16 2 -20
11 -3 10 -12 15 -21 11 -9 -3 -15 1 -15 11 0 13 -3 13 -15 3 -14 -12 -19 -7
-16 13 1 5 -3 6 -9 2 -6 -3 -8 -11 -5 -16 4 -5 1 -9 -4 -9 -6 0 -11 6 -11 13
0 8 -4 7 -10 -3 -9 -14 -14 -7 -11 13 1 4 -7 3 -18 -3 -26 -13 -34 -13 -25 3
5 7 0 6 -11 -3 -11 -9 -16 -10 -11 -2 11 18 -5 15 -21 -5 -8 -10 -12 -13 -9
-6 4 6 2 14 -4 18 -5 3 -10 1 -10 -6 0 -7 -7 -4 -15 7 -13 16 -14 16 -9 1 5
-13 2 -16 -10 -11 -9 3 -16 11 -16 18 0 6 -5 4 -10 -4 -8 -12 -10 -10 -10 9 0
21 -2 22 -17 10 -9 -8 -14 -9 -10 -3 4 7 -2 14 -14 17 -16 4 -18 3 -8 -9z
m-191 -204 c0 -5 -5 -10 -11 -10 -5 0 -7 5 -4 10 3 6 8 10 11 10 2 0 4 -4 4
-10z m1255 -209 c3 -5 2 -12 -3 -15 -5 -3 -9 1 -9 9 0 17 3 19 12 6z m-46
-304 c0 -9 -2 -8 -6 1 -2 6 -10 9 -15 6 -7 -4 -8 -2 -4 5 9 13 26 5 25 -12z"/>
<path d="M5775 6080 c3 -5 8 -10 11 -10 2 0 4 5 4 10 0 6 -5 10 -11 10 -5 0
-7 -4 -4 -10z"/>
<path d="M7723 5865 c0 -8 4 -12 9 -9 5 3 6 10 3 15 -9 13 -12 11 -12 -6z"/>
<path d="M4100 5271 c0 -6 4 -13 10 -16 6 -3 7 1 4 9 -7 18 -14 21 -14 7z"/>
<path d="M4944 4792 c4 -3 14 -7 22 -8 9 -1 13 0 10 4 -4 3 -14 7 -22 8 -9 1
-13 0 -10 -4z"/>
<path d="M5375 4790 c3 -5 8 -10 11 -10 2 0 4 5 4 10 0 6 -5 10 -11 10 -5 0
-7 -4 -4 -10z"/>
<path d="M7667 11309 c7 -7 15 -10 18 -7 3 3 -2 9 -12 12 -14 6 -15 5 -6 -5z"/>
<path d="M4209 9833 c-13 -16 -12 -17 4 -4 16 13 21 21 13 21 -2 0 -10 -8 -17
-17z"/>
<path d="M2930 7736 c0 -2 8 -10 18 -17 15 -13 16 -12 3 4 -13 16 -21 21 -21
13z"/>
<path d="M3555 6201 c-3 -5 -2 -12 3 -15 5 -3 9 1 9 9 0 17 -3 19 -12 6z"/>
<path d="M3455 5829 c-4 -6 -5 -12 -2 -15 2 -3 7 2 10 11 7 17 1 20 -8 4z"/>
<path d="M10205 5650 c-3 -6 1 -7 9 -4 18 7 21 14 7 14 -6 0 -13 -4 -16 -10z"/>
<path d="M7255 4190 c-3 -5 -1 -10 4 -10 6 0 11 5 11 10 0 6 -2 10 -4 10 -3 0
-8 -4 -11 -10z"/>
<path d="M5202 3816 c7 -8 15 -12 17 -11 5 6 -10 25 -20 25 -5 0 -4 -6 3 -14z"/>
</g>
</svg>
